<svg version="1.2" baseProfile="tiny-ps" xmlns="http://www.w3.org/2000/svg" viewBox="0 0 64 64" width="64" height="64">
  <path fill="#00D54D" d="M5 0h1v1H5zm1 0h1v1H6zm1 0h1v1H7zm1 0h1v1H8zm1 0h1v1H9zm1 0h1v1h-1zm1 0h1v1h-1zm1 0h1v1h-1zm1 0h1v1h-1zm1 0h1v1h-1zm1 0h1v1h-1zm1 0h1v1h-1zm1 0h1v1h-1zm1 0h1v1h-1zm1 0h1v1h-1zm1 0h1v1h-1zm1 0h1v1h-1zm1 0h1v1h-1zm1 0h1v1h-1zm1 0h1v1h-1zm1 0h1v1h-1zm1 0h1v1h-1zm1 0h1v1h-1zm1 0h1v1h-1zm1 0h1v1h-1zm1 0h1v1h-1zm1 0h1v1h-1zm1 0h1v1h-1zm1 0h1v1h-1zm1 0h1v1h-1zm1 0h1v1h-1zm1 0h1v1h-1zm1 0h1v1h-1zm1 0h1v1h-1zm1 0h1v1h-1zm1 0h1v1h-1zm1 0h1v1h-1zm1 0h1v1h-1zm1 0h1v1h-1zm1 0h1v1h-1zm1 0h1v1h-1zm1 0h1v1h-1zm1 0h1v1h-1zm1 0h1v1h-1zm1 0h1v1h-1zm1 0h1v1h-1zm1 0h1v1h-1zm1 0h1v1h-1zm1 0h1v1h-1zm1 0h1v1h-1zm1 0h1v1h-1zm1 0h1v1h-1zm1 0h1v1h-1zm1 0h1v1h-1zM3 1h1v1H3zm1 0h1v1H4zm1 0h1v1H5zm1 0h1v1H6zm1 0h1v1H7zm1 0h1v1H8zm1 0h1v1H9zm1 0h1v1h-1zm1 0h1v1h-1zm1 0h1v1h-1zm1 0h1v1h-1zm1 0h1v1h-1zm1 0h1v1h-1zm1 0h1v1h-1zm1 0h1v1h-1zm1 0h1v1h-1zm1 0h1v1h-1zm1 0h1v1h-1zm1 0h1v1h-1zm1 0h1v1h-1zm1 0h1v1h-1zm1 0h1v1h-1zm1 0h1v1h-1zm1 0h1v1h-1zm1 0h1v1h-1zm1 0h1v1h-1zm1 0h1v1h-1zm1 0h1v1h-1zm1 0h1v1h-1zm1 0h1v1h-1zm1 0h1v1h-1zm1 0h1v1h-1zm1 0h1v1h-1zm1 0h1v1h-1zm1 0h1v1h-1zm1 0h1v1h-1zm1 0h1v1h-1zm1 0h1v1h-1zm1 0h1v1h-1zm1 0h1v1h-1zm1 0h1v1h-1zm1 0h1v1h-1zm1 0h1v1h-1zm1 0h1v1h-1zm1 0h1v1h-1zm1 0h1v1h-1zm1 0h1v1h-1zm1 0h1v1h-1zm1 0h1v1h-1zm1 0h1v1h-1zm1 0h1v1h-1zm1 0h1v1h-1zm1 0h1v1h-1zm1 0h1v1h-1zm1 0h1v1h-1zm1 0h1v1h-1zm1 0h1v1h-1zm1 0h1v1h-1zM2 2h1v1H2zm1 0h1v1H3zm1 0h1v1H4zm1 0h1v1H5zm1 0h1v1H6zm1 0h1v1H7zm1 0h1v1H8zm1 0h1v1H9zm1 0h1v1h-1zm1 0h1v1h-1zm1 0h1v1h-1zm1 0h1v1h-1zm1 0h1v1h-1zm1 0h1v1h-1zm1 0h1v1h-1zm1 0h1v1h-1zm1 0h1v1h-1zm1 0h1v1h-1zm1 0h1v1h-1zm1 0h1v1h-1zm1 0h1v1h-1zm1 0h1v1h-1zm1 0h1v1h-1zm1 0h1v1h-1zm1 0h1v1h-1zm1 0h1v1h-1zm1 0h1v1h-1zm1 0h1v1h-1zm1 0h1v1h-1zm1 0h1v1h-1zm1 0h1v1h-1zm1 0h1v1h-1zm1 0h1v1h-1zm1 0h1v1h-1zm1 0h1v1h-1zm1 0h1v1h-1zm1 0h1v1h-1zm1 0h1v1h-1zm1 0h1v1h-1zm1 0h1v1h-1zm1 0h1v1h-1zm1 0h1v1h-1zm1 0h1v1h-1zm1 0h1v1h-1zm1 0h1v1h-1zm1 0h1v1h-1zm1 0h1v1h-1zm1 0h1v1h-1zm1 0h1v1h-1zm1 0h1v1h-1zm1 0h1v1h-1zm1 0h1v1h-1zm1 0h1v1h-1zm1 0h1v1h-1zm1 0h1v1h-1zm1 0h1v1h-1zm1 0h1v1h-1zm1 0h1v1h-1zm1 0h1v1h-1zm1 0h1v1h-1zM1 3h1v1H1zm1 0h1v1H2zm1 0h1v1H3zm1 0h1v1H4zm1 0h1v1H5zm1 0h1v1H6zm1 0h1v1H7zm1 0h1v1H8zm1 0h1v1H9zm1 0h1v1h-1zm1 0h1v1h-1zm1 0h1v1h-1zm1 0h1v1h-1zm1 0h1v1h-1zm1 0h1v1h-1zm1 0h1v1h-1zm1 0h1v1h-1zm1 0h1v1h-1zm1 0h1v1h-1zm1 0h1v1h-1zm1 0h1v1h-1zm1 0h1v1h-1zm1 0h1v1h-1zm1 0h1v1h-1zm1 0h1v1h-1zm1 0h1v1h-1zm1 0h1v1h-1zm1 0h1v1h-1zm1 0h1v1h-1zm1 0h1v1h-1zm1 0h1v1h-1zm1 0h1v1h-1zm1 0h1v1h-1zm1 0h1v1h-1zm1 0h1v1h-1zm1 0h1v1h-1zm1 0h1v1h-1zm1 0h1v1h-1zm1 0h1v1h-1zm1 0h1v1h-1zm1 0h1v1h-1zm1 0h1v1h-1zm1 0h1v1h-1zm1 0h1v1h-1zm1 0h1v1h-1zm1 0h1v1h-1zm1 0h1v1h-1zm1 0h1v1h-1zm1 0h1v1h-1zm1 0h1v1h-1zm1 0h1v1h-1zm1 0h1v1h-1zm1 0h1v1h-1zm1 0h1v1h-1zm1 0h1v1h-1zm1 0h1v1h-1zm1 0h1v1h-1zm1 0h1v1h-1zm1 0h1v1h-1zm1 0h1v1h-1z"/>
  <path fill="#7900A4" d="M61 3h1v1h-1zm1 0h1v1h-1z"/>
  <path fill="#00D54D" d="M1 4h1v1H1zm1 0h1v1H2zm1 0h1v1H3zm1 0h1v1H4zm1 0h1v1H5zm1 0h1v1H6zm1 0h1v1H7zm1 0h1v1H8zm1 0h1v1H9zm1 0h1v1h-1zm1 0h1v1h-1zm1 0h1v1h-1zm1 0h1v1h-1zm1 0h1v1h-1zm1 0h1v1h-1zm1 0h1v1h-1zm1 0h1v1h-1zm1 0h1v1h-1zm1 0h1v1h-1zm1 0h1v1h-1zm1 0h1v1h-1zm1 0h1v1h-1zm1 0h1v1h-1zm1 0h1v1h-1zm1 0h1v1h-1zm1 0h1v1h-1zm1 0h1v1h-1zm1 0h1v1h-1zm1 0h1v1h-1zm1 0h1v1h-1zm1 0h1v1h-1zm1 0h1v1h-1zm1 0h1v1h-1zm1 0h1v1h-1zm1 0h1v1h-1zm1 0h1v1h-1zm1 0h1v1h-1zm1 0h1v1h-1zm1 0h1v1h-1zm1 0h1v1h-1zm1 0h1v1h-1zm1 0h1v1h-1zm1 0h1v1h-1zm1 0h1v1h-1zm1 0h1v1h-1zm1 0h1v1h-1zm1 0h1v1h-1zm1 0h1v1h-1zm1 0h1v1h-1zm1 0h1v1h-1zm1 0h1v1h-1zm1 0h1v1h-1zm1 0h1v1h-1zm1 0h1v1h-1zm1 0h1v1h-1zm1 0h1v1h-1zm1 0h1v1h-1zm1 0h1v1h-1zm1 0h1v1h-1z"/>
  <path fill="#7900A4" d="M60 4h1v1h-1zm1 0h1v1h-1zm1 0h1v1h-1z"/>
  <path fill="#00D54D" d="M0 5h1v1H0zm1 0h1v1H1zm1 0h1v1H2zm1 0h1v1H3zm1 0h1v1H4zm1 0h1v1H5zm1 0h1v1H6zm1 0h1v1H7zm1 0h1v1H8zm1 0h1v1H9zm1 0h1v1h-1zm1 0h1v1h-1zm1 0h1v1h-1zm1 0h1v1h-1zm1 0h1v1h-1zm1 0h1v1h-1zm1 0h1v1h-1zm1 0h1v1h-1zm1 0h1v1h-1zm1 0h1v1h-1zm1 0h1v1h-1zm1 0h1v1h-1zm1 0h1v1h-1zm1 0h1v1h-1zm1 0h1v1h-1zm1 0h1v1h-1zm1 0h1v1h-1zm1 0h1v1h-1zm1 0h1v1h-1zm1 0h1v1h-1zm1 0h1v1h-1zm1 0h1v1h-1zm1 0h1v1h-1zm1 0h1v1h-1zm1 0h1v1h-1zm1 0h1v1h-1zm1 0h1v1h-1zm1 0h1v1h-1zm1 0h1v1h-1zm1 0h1v1h-1zm1 0h1v1h-1zm1 0h1v1h-1zm1 0h1v1h-1zm1 0h1v1h-1zm1 0h1v1h-1zm1 0h1v1h-1zm1 0h1v1h-1zm1 0h1v1h-1zm1 0h1v1h-1zm1 0h1v1h-1zm1 0h1v1h-1zm1 0h1v1h-1zm1 0h1v1h-1zm1 0h1v1h-1zm1 0h1v1h-1zm1 0h1v1h-1zm1 0h1v1h-1zm1 0h1v1h-1zm1 0h1v1h-1z"/>
  <path fill="#7900A4" d="M59 5h1v1h-1zm1 0h1v1h-1zm1 0h1v1h-1zm1 0h1v1h-1zm1 0h1v1h-1z"/>
  <path fill="#00D54D" d="M0 6h1v1H0zm1 0h1v1H1zm1 0h1v1H2zm1 0h1v1H3zm1 0h1v1H4zm1 0h1v1H5z"/>
  <path fill="#E2E2E2" d="M6 6h1v1H6zm1 0h1v1H7zm1 0h1v1H8z"/>
  <path fill="#00D54D" d="M9 6h1v1H9zm1 0h1v1h-1zm1 0h1v1h-1zm1 0h1v1h-1zm1 0h1v1h-1zm1 0h1v1h-1zm1 0h1v1h-1zm1 0h1v1h-1zm1 0h1v1h-1zm1 0h1v1h-1zm1 0h1v1h-1zm1 0h1v1h-1zm1 0h1v1h-1zm1 0h1v1h-1zm1 0h1v1h-1zm1 0h1v1h-1zm1 0h1v1h-1zm1 0h1v1h-1zm1 0h1v1h-1zm1 0h1v1h-1zm1 0h1v1h-1z"/>
  <path fill="#E2E2E2" d="M30 6h1v1h-1zm1 0h1v1h-1zm1 0h1v1h-1zm1 0h1v1h-1z"/>
  <path fill="#00D54D" d="M34 6h1v1h-1zm1 0h1v1h-1zm1 0h1v1h-1zm1 0h1v1h-1zm1 0h1v1h-1zm1 0h1v1h-1zm1 0h1v1h-1zm1 0h1v1h-1zm1 0h1v1h-1zm1 0h1v1h-1zm1 0h1v1h-1zm1 0h1v1h-1zm1 0h1v1h-1zm1 0h1v1h-1zm1 0h1v1h-1zm1 0h1v1h-1zm1 0h1v1h-1zm1 0h1v1h-1zm1 0h1v1h-1zm1 0h1v1h-1zm1 0h1v1h-1z"/>
  <path fill="#E2E2E2" d="M55 6h1v1h-1zm1 0h1v1h-1zm1 0h1v1h-1z"/>
  <path fill="#7900A4" d="M58 6h1v1h-1zm1 0h1v1h-1zm1 0h1v1h-1zm1 0h1v1h-1zm1 0h1v1h-1zm1 0h1v1h-1z"/>
  <path fill="#00D54D" d="M0 7h1v1H0zm1 0h1v1H1zm1 0h1v1H2zm1 0h1v1H3zm1 0h1v1H4zm1 0h1v1H5z"/>
  <path fill="#E2E2E2" d="M6 7h1v1H6zm1 0h1v1H7zm1 0h1v1H8zm1 0h1v1H9zm1 0h1v1h-1z"/>
  <path fill="#00D54D" d="M11 7h1v1h-1zm1 0h1v1h-1zm1 0h1v1h-1zm1 0h1v1h-1zm1 0h1v1h-1zm1 0h1v1h-1zm1 0h1v1h-1zm1 0h1v1h-1zm1 0h1v1h-1zm1 0h1v1h-1zm1 0h1v1h-1zm1 0h1v1h-1zm1 0h1v1h-1zm1 0h1v1h-1zm1 0h1v1h-1zm1 0h1v1h-1zm1 0h1v1h-1zm1 0h1v1h-1z"/>
  <path fill="#E2E2E2" d="M29 7h1v1h-1z"/>
  <path fill="#00D54D" d="M30 7h1v1h-1z"/>
  <path fill="#E2E2E2" d="M31 7h1v1h-1zm1 0h1v1h-1z"/>
  <path fill="#00D54D" d="M33 7h1v1h-1z"/>
  <path fill="#E2E2E2" d="M34 7h1v1h-1z"/>
  <path fill="#00D54D" d="M35 7h1v1h-1zm1 0h1v1h-1zm1 0h1v1h-1zm1 0h1v1h-1zm1 0h1v1h-1zm1 0h1v1h-1zm1 0h1v1h-1zm1 0h1v1h-1zm1 0h1v1h-1zm1 0h1v1h-1zm1 0h1v1h-1zm1 0h1v1h-1zm1 0h1v1h-1zm1 0h1v1h-1zm1 0h1v1h-1zm1 0h1v1h-1zm1 0h1v1h-1zm1 0h1v1h-1z"/>
  <path fill="#E2E2E2" d="M53 7h1v1h-1zm1 0h1v1h-1zm1 0h1v1h-1zm1 0h1v1h-1zm1 0h1v1h-1z"/>
  <path fill="#7900A4" d="M58 7h1v1h-1zm1 0h1v1h-1zm1 0h1v1h-1zm1 0h1v1h-1zm1 0h1v1h-1zm1 0h1v1h-1z"/>
  <path fill="#00D54D" d="M0 8h1v1H0zm1 0h1v1H1zm1 0h1v1H2zm1 0h1v1H3zm1 0h1v1H4zm1 0h1v1H5z"/>
  <path fill="#E2E2E2" d="M6 8h1v1H6zm1 0h1v1H7zm1 0h1v1H8zm1 0h1v1H9z"/>
  <path fill="#00D54D" d="M10 8h1v1h-1z"/>
  <path fill="#E2E2E2" d="M11 8h1v1h-1zm1 0h1v1h-1z"/>
  <path fill="#00D54D" d="M13 8h1v1h-1zm1 0h1v1h-1zm1 0h1v1h-1zm1 0h1v1h-1zm1 0h1v1h-1zm1 0h1v1h-1zm1 0h1v1h-1zm1 0h1v1h-1zm1 0h1v1h-1zm1 0h1v1h-1zm1 0h1v1h-1zm1 0h1v1h-1zm1 0h1v1h-1zm1 0h1v1h-1z"/>
  <path fill="#E2E2E2" d="M27 8h1v1h-1zm1 0h1v1h-1z"/>
  <path fill="#00D54D" d="M29 8h1v1h-1zm1 0h1v1h-1z"/>
  <path fill="#E2E2E2" d="M31 8h1v1h-1zm1 0h1v1h-1z"/>
  <path fill="#00D54D" d="M33 8h1v1h-1zm1 0h1v1h-1z"/>
  <path fill="#E2E2E2" d="M35 8h1v1h-1zm1 0h1v1h-1z"/>
  <path fill="#00D54D" d="M37 8h1v1h-1zm1 0h1v1h-1zm1 0h1v1h-1zm1 0h1v1h-1zm1 0h1v1h-1zm1 0h1v1h-1zm1 0h1v1h-1zm1 0h1v1h-1zm1 0h1v1h-1zm1 0h1v1h-1zm1 0h1v1h-1zm1 0h1v1h-1zm1 0h1v1h-1zm1 0h1v1h-1z"/>
  <path fill="#E2E2E2" d="M51 8h1v1h-1zm1 0h1v1h-1z"/>
  <path fill="#00D54D" d="M53 8h1v1h-1z"/>
  <path fill="#E2E2E2" d="M54 8h1v1h-1zm1 0h1v1h-1zm1 0h1v1h-1zm1 0h1v1h-1z"/>
  <path fill="#7900A4" d="M58 8h1v1h-1zm1 0h1v1h-1zm1 0h1v1h-1zm1 0h1v1h-1zm1 0h1v1h-1zm1 0h1v1h-1z"/>
  <path fill="#00D54D" d="M0 9h1v1H0zm1 0h1v1H1zm1 0h1v1H2zm1 0h1v1H3zm1 0h1v1H4zm1 0h1v1H5zm1 0h1v1H6z"/>
  <path fill="#E2E2E2" d="M7 9h1v1H7zm1 0h1v1H8zm1 0h1v1H9zm1 0h1v1h-1z"/>
  <path fill="#00D54D" d="M11 9h1v1h-1zm1 0h1v1h-1z"/>
  <path fill="#E2E2E2" d="M13 9h1v1h-1zm1 0h1v1h-1z"/>
  <path fill="#00D54D" d="M15 9h1v1h-1zm1 0h1v1h-1zm1 0h1v1h-1zm1 0h1v1h-1zm1 0h1v1h-1zm1 0h1v1h-1zm1 0h1v1h-1zm1 0h1v1h-1zm1 0h1v1h-1zm1 0h1v1h-1z"/>
  <path fill="#E2E2E2" d="M25 9h1v1h-1zm1 0h1v1h-1z"/>
  <path fill="#00D54D" d="M27 9h1v1h-1zm1 0h1v1h-1zm1 0h1v1h-1zm1 0h1v1h-1z"/>
  <path fill="#E2E2E2" d="M31 9h1v1h-1zm1 0h1v1h-1z"/>
  <path fill="#00D54D" d="M33 9h1v1h-1zm1 0h1v1h-1zm1 0h1v1h-1zm1 0h1v1h-1z"/>
  <path fill="#E2E2E2" d="M37 9h1v1h-1zm1 0h1v1h-1z"/>
  <path fill="#00D54D" d="M39 9h1v1h-1zm1 0h1v1h-1zm1 0h1v1h-1zm1 0h1v1h-1zm1 0h1v1h-1zm1 0h1v1h-1zm1 0h1v1h-1zm1 0h1v1h-1zm1 0h1v1h-1zm1 0h1v1h-1z"/>
  <path fill="#E2E2E2" d="M49 9h1v1h-1zm1 0h1v1h-1z"/>
  <path fill="#00D54D" d="M51 9h1v1h-1zm1 0h1v1h-1z"/>
  <path fill="#E2E2E2" d="M53 9h1v1h-1zm1 0h1v1h-1zm1 0h1v1h-1zm1 0h1v1h-1z"/>
  <path fill="#7900A4" d="M57 9h1v1h-1zm1 0h1v1h-1zm1 0h1v1h-1zm1 0h1v1h-1zm1 0h1v1h-1zm1 0h1v1h-1zm1 0h1v1h-1z"/>
  <path fill="#00D54D" d="M0 10h1v1H0zm1 0h1v1H1zm1 0h1v1H2zm1 0h1v1H3zm1 0h1v1H4zm1 0h1v1H5zm1 0h1v1H6z"/>
  <path fill="#E2E2E2" d="M7 10h1v1H7z"/>
  <path fill="#00D54D" d="M8 10h1v1H8z"/>
  <path fill="#E2E2E2" d="M9 10h1v1H9zm1 0h1v1h-1zm1 0h1v1h-1z"/>
  <path fill="#00D54D" d="M12 10h1v1h-1zm1 0h1v1h-1zm1 0h1v1h-1z"/>
  <path fill="#E2E2E2" d="M15 10h1v1h-1zm1 0h1v1h-1z"/>
  <path fill="#00D54D" d="M17 10h1v1h-1zm1 0h1v1h-1zm1 0h1v1h-1zm1 0h1v1h-1zm1 0h1v1h-1zm1 0h1v1h-1z"/>
  <path fill="#E2E2E2" d="M23 10h1v1h-1zm1 0h1v1h-1z"/>
  <path fill="#00D54D" d="M25 10h1v1h-1zm1 0h1v1h-1zm1 0h1v1h-1zm1 0h1v1h-1zm1 0h1v1h-1zm1 0h1v1h-1z"/>
  <path fill="#E2E2E2" d="M31 10h1v1h-1zm1 0h1v1h-1z"/>
  <path fill="#00D54D" d="M33 10h1v1h-1zm1 0h1v1h-1zm1 0h1v1h-1zm1 0h1v1h-1zm1 0h1v1h-1zm1 0h1v1h-1z"/>
  <path fill="#E2E2E2" d="M39 10h1v1h-1zm1 0h1v1h-1z"/>
  <path fill="#00D54D" d="M41 10h1v1h-1zm1 0h1v1h-1zm1 0h1v1h-1zm1 0h1v1h-1zm1 0h1v1h-1zm1 0h1v1h-1z"/>
  <path fill="#E2E2E2" d="M47 10h1v1h-1zm1 0h1v1h-1z"/>
  <path fill="#00D54D" d="M49 10h1v1h-1zm1 0h1v1h-1zm1 0h1v1h-1z"/>
  <path fill="#E2E2E2" d="M52 10h1v1h-1zm1 0h1v1h-1zm1 0h1v1h-1z"/>
  <path fill="#7900A4" d="M55 10h1v1h-1z"/>
  <path fill="#E2E2E2" d="M56 10h1v1h-1z"/>
  <path fill="#7900A4" d="M57 10h1v1h-1zm1 0h1v1h-1zm1 0h1v1h-1zm1 0h1v1h-1zm1 0h1v1h-1zm1 0h1v1h-1zm1 0h1v1h-1z"/>
  <path fill="#00D54D" d="M0 11h1v1H0zm1 0h1v1H1zm1 0h1v1H2zm1 0h1v1H3zm1 0h1v1H4zm1 0h1v1H5zm1 0h1v1H6zm1 0h1v1H7z"/>
  <path fill="#E2E2E2" d="M8 11h1v1H8z"/>
  <path fill="#00D54D" d="M9 11h1v1H9z"/>
  <path fill="#E2E2E2" d="M10 11h1v1h-1zm1 0h1v1h-1zm1 0h1v1h-1z"/>
  <path fill="#00D54D" d="M13 11h1v1h-1zm1 0h1v1h-1zm1 0h1v1h-1zm1 0h1v1h-1z"/>
  <path fill="#E2E2E2" d="M17 11h1v1h-1zm1 0h1v1h-1z"/>
  <path fill="#00D54D" d="M19 11h1v1h-1zm1 0h1v1h-1z"/>
  <path fill="#E2E2E2" d="M21 11h1v1h-1zm1 0h1v1h-1z"/>
  <path fill="#00D54D" d="M23 11h1v1h-1zm1 0h1v1h-1zm1 0h1v1h-1zm1 0h1v1h-1zm1 0h1v1h-1zm1 0h1v1h-1zm1 0h1v1h-1zm1 0h1v1h-1z"/>
  <path fill="#E2E2E2" d="M31 11h1v1h-1zm1 0h1v1h-1z"/>
  <path fill="#00D54D" d="M33 11h1v1h-1zm1 0h1v1h-1zm1 0h1v1h-1zm1 0h1v1h-1zm1 0h1v1h-1zm1 0h1v1h-1zm1 0h1v1h-1zm1 0h1v1h-1z"/>
  <path fill="#E2E2E2" d="M41 11h1v1h-1zm1 0h1v1h-1z"/>
  <path fill="#00D54D" d="M43 11h1v1h-1zm1 0h1v1h-1z"/>
  <path fill="#E2E2E2" d="M45 11h1v1h-1zm1 0h1v1h-1z"/>
  <path fill="#00D54D" d="M47 11h1v1h-1zm1 0h1v1h-1zm1 0h1v1h-1zm1 0h1v1h-1z"/>
  <path fill="#E2E2E2" d="M51 11h1v1h-1zm1 0h1v1h-1zm1 0h1v1h-1z"/>
  <path fill="#7900A4" d="M54 11h1v1h-1z"/>
  <path fill="#E2E2E2" d="M55 11h1v1h-1z"/>
  <path fill="#7900A4" d="M56 11h1v1h-1zm1 0h1v1h-1zm1 0h1v1h-1zm1 0h1v1h-1zm1 0h1v1h-1zm1 0h1v1h-1zm1 0h1v1h-1zm1 0h1v1h-1z"/>
  <path fill="#00D54D" d="M0 12h1v1H0zm1 0h1v1H1zm1 0h1v1H2zm1 0h1v1H3zm1 0h1v1H4zm1 0h1v1H5zm1 0h1v1H6zm1 0h1v1H7z"/>
  <path fill="#E2E2E2" d="M8 12h1v1H8z"/>
  <path fill="#00D54D" d="M9 12h1v1H9zm1 0h1v1h-1z"/>
  <path fill="#E2E2E2" d="M11 12h1v1h-1zm1 0h1v1h-1zm1 0h1v1h-1z"/>
  <path fill="#00D54D" d="M14 12h1v1h-1zm1 0h1v1h-1zm1 0h1v1h-1zm1 0h1v1h-1zm1 0h1v1h-1z"/>
  <path fill="#E2E2E2" d="M19 12h1v1h-1zm1 0h1v1h-1z"/>
  <path fill="#00D54D" d="M21 12h1v1h-1zm1 0h1v1h-1zm1 0h1v1h-1zm1 0h1v1h-1zm1 0h1v1h-1zm1 0h1v1h-1zm1 0h1v1h-1zm1 0h1v1h-1zm1 0h1v1h-1zm1 0h1v1h-1z"/>
  <path fill="#E2E2E2" d="M31 12h1v1h-1zm1 0h1v1h-1z"/>
  <path fill="#00D54D" d="M33 12h1v1h-1zm1 0h1v1h-1zm1 0h1v1h-1zm1 0h1v1h-1zm1 0h1v1h-1zm1 0h1v1h-1zm1 0h1v1h-1zm1 0h1v1h-1zm1 0h1v1h-1zm1 0h1v1h-1z"/>
  <path fill="#E2E2E2" d="M43 12h1v1h-1zm1 0h1v1h-1z"/>
  <path fill="#00D54D" d="M45 12h1v1h-1zm1 0h1v1h-1zm1 0h1v1h-1zm1 0h1v1h-1zm1 0h1v1h-1z"/>
  <path fill="#E2E2E2" d="M50 12h1v1h-1zm1 0h1v1h-1zm1 0h1v1h-1z"/>
  <path fill="#7900A4" d="M53 12h1v1h-1zm1 0h1v1h-1z"/>
  <path fill="#E2E2E2" d="M55 12h1v1h-1z"/>
  <path fill="#7900A4" d="M56 12h1v1h-1zm1 0h1v1h-1zm1 0h1v1h-1zm1 0h1v1h-1zm1 0h1v1h-1zm1 0h1v1h-1zm1 0h1v1h-1zm1 0h1v1h-1z"/>
  <path fill="#00D54D" d="M0 13h1v1H0zm1 0h1v1H1zm1 0h1v1H2zm1 0h1v1H3zm1 0h1v1H4zm1 0h1v1H5zm1 0h1v1H6zm1 0h1v1H7zm1 0h1v1H8z"/>
  <path fill="#E2E2E2" d="M9 13h1v1H9z"/>
  <path fill="#00D54D" d="M10 13h1v1h-1zm1 0h1v1h-1z"/>
  <path fill="#E2E2E2" d="M12 13h1v1h-1zm1 0h1v1h-1zm1 0h1v1h-1z"/>
  <path fill="#00D54D" d="M15 13h1v1h-1zm1 0h1v1h-1zm1 0h1v1h-1zm1 0h1v1h-1zm1 0h1v1h-1zm1 0h1v1h-1zm1 0h1v1h-1zm1 0h1v1h-1zm1 0h1v1h-1zm1 0h1v1h-1zm1 0h1v1h-1zm1 0h1v1h-1zm1 0h1v1h-1zm1 0h1v1h-1zm1 0h1v1h-1zm1 0h1v1h-1z"/>
  <path fill="#E2E2E2" d="M31 13h1v1h-1zm1 0h1v1h-1z"/>
  <path fill="#00D54D" d="M33 13h1v1h-1zm1 0h1v1h-1zm1 0h1v1h-1zm1 0h1v1h-1zm1 0h1v1h-1zm1 0h1v1h-1zm1 0h1v1h-1zm1 0h1v1h-1zm1 0h1v1h-1zm1 0h1v1h-1zm1 0h1v1h-1zm1 0h1v1h-1zm1 0h1v1h-1zm1 0h1v1h-1zm1 0h1v1h-1zm1 0h1v1h-1z"/>
  <path fill="#E2E2E2" d="M49 13h1v1h-1zm1 0h1v1h-1zm1 0h1v1h-1z"/>
  <path fill="#7900A4" d="M52 13h1v1h-1zm1 0h1v1h-1z"/>
  <path fill="#E2E2E2" d="M54 13h1v1h-1z"/>
  <path fill="#7900A4" d="M55 13h1v1h-1zm1 0h1v1h-1zm1 0h1v1h-1zm1 0h1v1h-1zm1 0h1v1h-1zm1 0h1v1h-1zm1 0h1v1h-1zm1 0h1v1h-1zm1 0h1v1h-1z"/>
  <path fill="#00D54D" d="M0 14h1v1H0zm1 0h1v1H1zm1 0h1v1H2zm1 0h1v1H3zm1 0h1v1H4zm1 0h1v1H5zm1 0h1v1H6zm1 0h1v1H7zm1 0h1v1H8z"/>
  <path fill="#E2E2E2" d="M9 14h1v1H9z"/>
  <path fill="#00D54D" d="M10 14h1v1h-1zm1 0h1v1h-1zm1 0h1v1h-1z"/>
  <path fill="#E2E2E2" d="M13 14h1v1h-1zm1 0h1v1h-1zm1 0h1v1h-1z"/>
  <path fill="#00D54D" d="M16 14h1v1h-1zm1 0h1v1h-1zm1 0h1v1h-1zm1 0h1v1h-1zm1 0h1v1h-1zm1 0h1v1h-1zm1 0h1v1h-1zm1 0h1v1h-1zm1 0h1v1h-1zm1 0h1v1h-1zm1 0h1v1h-1zm1 0h1v1h-1zm1 0h1v1h-1zm1 0h1v1h-1zm1 0h1v1h-1z"/>
  <path fill="#E2E2E2" d="M31 14h1v1h-1zm1 0h1v1h-1z"/>
  <path fill="#00D54D" d="M33 14h1v1h-1zm1 0h1v1h-1zm1 0h1v1h-1zm1 0h1v1h-1zm1 0h1v1h-1zm1 0h1v1h-1zm1 0h1v1h-1zm1 0h1v1h-1zm1 0h1v1h-1zm1 0h1v1h-1zm1 0h1v1h-1zm1 0h1v1h-1zm1 0h1v1h-1zm1 0h1v1h-1zm1 0h1v1h-1z"/>
  <path fill="#E2E2E2" d="M48 14h1v1h-1zm1 0h1v1h-1zm1 0h1v1h-1z"/>
  <path fill="#7900A4" d="M51 14h1v1h-1zm1 0h1v1h-1zm1 0h1v1h-1z"/>
  <path fill="#E2E2E2" d="M54 14h1v1h-1z"/>
  <path fill="#7900A4" d="M55 14h1v1h-1zm1 0h1v1h-1zm1 0h1v1h-1zm1 0h1v1h-1zm1 0h1v1h-1zm1 0h1v1h-1zm1 0h1v1h-1zm1 0h1v1h-1zm1 0h1v1h-1z"/>
  <path fill="#00D54D" d="M0 15h1v1H0zm1 0h1v1H1zm1 0h1v1H2zm1 0h1v1H3zm1 0h1v1H4zm1 0h1v1H5zm1 0h1v1H6zm1 0h1v1H7zm1 0h1v1H8zm1 0h1v1H9z"/>
  <path fill="#E2E2E2" d="M10 15h1v1h-1z"/>
  <path fill="#00D54D" d="M11 15h1v1h-1zm1 0h1v1h-1zm1 0h1v1h-1z"/>
  <path fill="#E2E2E2" d="M14 15h1v1h-1zm1 0h1v1h-1zm1 0h1v1h-1z"/>
  <path fill="#00D54D" d="M17 15h1v1h-1zm1 0h1v1h-1zm1 0h1v1h-1zm1 0h1v1h-1zm1 0h1v1h-1zm1 0h1v1h-1zm1 0h1v1h-1zm1 0h1v1h-1zm1 0h1v1h-1zm1 0h1v1h-1zm1 0h1v1h-1zm1 0h1v1h-1zm1 0h1v1h-1z"/>
  <path fill="#E2E2E2" d="M30 15h1v1h-1zm1 0h1v1h-1zm1 0h1v1h-1zm1 0h1v1h-1z"/>
  <path fill="#00D54D" d="M34 15h1v1h-1zm1 0h1v1h-1zm1 0h1v1h-1zm1 0h1v1h-1zm1 0h1v1h-1zm1 0h1v1h-1zm1 0h1v1h-1zm1 0h1v1h-1zm1 0h1v1h-1zm1 0h1v1h-1zm1 0h1v1h-1zm1 0h1v1h-1zm1 0h1v1h-1z"/>
  <path fill="#E2E2E2" d="M47 15h1v1h-1zm1 0h1v1h-1zm1 0h1v1h-1z"/>
  <path fill="#7900A4" d="M50 15h1v1h-1zm1 0h1v1h-1zm1 0h1v1h-1z"/>
  <path fill="#E2E2E2" d="M53 15h1v1h-1z"/>
  <path fill="#7900A4" d="M54 15h1v1h-1zm1 0h1v1h-1zm1 0h1v1h-1zm1 0h1v1h-1zm1 0h1v1h-1zm1 0h1v1h-1zm1 0h1v1h-1zm1 0h1v1h-1zm1 0h1v1h-1zm1 0h1v1h-1z"/>
  <path fill="#00D54D" d="M0 16h1v1H0zm1 0h1v1H1zm1 0h1v1H2zm1 0h1v1H3zm1 0h1v1H4zm1 0h1v1H5zm1 0h1v1H6zm1 0h1v1H7zm1 0h1v1H8zm1 0h1v1H9z"/>
  <path fill="#E2E2E2" d="M10 16h1v1h-1z"/>
  <path fill="#00D54D" d="M11 16h1v1h-1zm1 0h1v1h-1zm1 0h1v1h-1zm1 0h1v1h-1z"/>
  <path fill="#E2E2E2" d="M15 16h1v1h-1zm1 0h1v1h-1zm1 0h1v1h-1zm1 0h1v1h-1zm1 0h1v1h-1z"/>
  <path fill="#00D54D" d="M20 16h1v1h-1zm1 0h1v1h-1zm1 0h1v1h-1zm1 0h1v1h-1zm1 0h1v1h-1zm1 0h1v1h-1zm1 0h1v1h-1zm1 0h1v1h-1zm1 0h1v1h-1z"/>
  <path fill="#E2E2E2" d="M29 16h1v1h-1z"/>
  <path fill="#00D54D" d="M30 16h1v1h-1z"/>
  <path fill="#E2E2E2" d="M31 16h1v1h-1zm1 0h1v1h-1z"/>
  <path fill="#00D54D" d="M33 16h1v1h-1z"/>
  <path fill="#E2E2E2" d="M34 16h1v1h-1z"/>
  <path fill="#00D54D" d="M35 16h1v1h-1zm1 0h1v1h-1zm1 0h1v1h-1zm1 0h1v1h-1zm1 0h1v1h-1zm1 0h1v1h-1zm1 0h1v1h-1zm1 0h1v1h-1zm1 0h1v1h-1z"/>
  <path fill="#E2E2E2" d="M44 16h1v1h-1zm1 0h1v1h-1zm1 0h1v1h-1zm1 0h1v1h-1zm1 0h1v1h-1z"/>
  <path fill="#7900A4" d="M49 16h1v1h-1zm1 0h1v1h-1zm1 0h1v1h-1zm1 0h1v1h-1z"/>
  <path fill="#E2E2E2" d="M53 16h1v1h-1z"/>
  <path fill="#7900A4" d="M54 16h1v1h-1zm1 0h1v1h-1zm1 0h1v1h-1zm1 0h1v1h-1zm1 0h1v1h-1zm1 0h1v1h-1zm1 0h1v1h-1zm1 0h1v1h-1zm1 0h1v1h-1zm1 0h1v1h-1z"/>
  <path fill="#00D54D" d="M0 17h1v1H0zm1 0h1v1H1zm1 0h1v1H2zm1 0h1v1H3zm1 0h1v1H4zm1 0h1v1H5zm1 0h1v1H6zm1 0h1v1H7zm1 0h1v1H8zm1 0h1v1H9zm1 0h1v1h-1z"/>
  <path fill="#E2E2E2" d="M11 17h1v1h-1z"/>
  <path fill="#00D54D" d="M12 17h1v1h-1zm1 0h1v1h-1zm1 0h1v1h-1zm1 0h1v1h-1z"/>
  <path fill="#E2E2E2" d="M16 17h1v1h-1zm1 0h1v1h-1zm1 0h1v1h-1z"/>
  <path fill="#00D54D" d="M19 17h1v1h-1z"/>
  <path fill="#E2E2E2" d="M20 17h1v1h-1zm1 0h1v1h-1z"/>
  <path fill="#00D54D" d="M22 17h1v1h-1zm1 0h1v1h-1zm1 0h1v1h-1zm1 0h1v1h-1zm1 0h1v1h-1z"/>
  <path fill="#E2E2E2" d="M27 17h1v1h-1zm1 0h1v1h-1z"/>
  <path fill="#00D54D" d="M29 17h1v1h-1zm1 0h1v1h-1z"/>
  <path fill="#E2E2E2" d="M31 17h1v1h-1zm1 0h1v1h-1z"/>
  <path fill="#00D54D" d="M33 17h1v1h-1zm1 0h1v1h-1z"/>
  <path fill="#E2E2E2" d="M35 17h1v1h-1zm1 0h1v1h-1z"/>
  <path fill="#00D54D" d="M37 17h1v1h-1zm1 0h1v1h-1zm1 0h1v1h-1zm1 0h1v1h-1zm1 0h1v1h-1z"/>
  <path fill="#E2E2E2" d="M42 17h1v1h-1zm1 0h1v1h-1z"/>
  <path fill="#00D54D" d="M44 17h1v1h-1z"/>
  <path fill="#E2E2E2" d="M45 17h1v1h-1zm1 0h1v1h-1zm1 0h1v1h-1z"/>
  <path fill="#7900A4" d="M48 17h1v1h-1zm1 0h1v1h-1zm1 0h1v1h-1zm1 0h1v1h-1z"/>
  <path fill="#E2E2E2" d="M52 17h1v1h-1z"/>
  <path fill="#7900A4" d="M53 17h1v1h-1zm1 0h1v1h-1zm1 0h1v1h-1zm1 0h1v1h-1zm1 0h1v1h-1zm1 0h1v1h-1zm1 0h1v1h-1zm1 0h1v1h-1zm1 0h1v1h-1zm1 0h1v1h-1zm1 0h1v1h-1z"/>
  <path fill="#00D54D" d="M0 18h1v1H0zm1 0h1v1H1zm1 0h1v1H2zm1 0h1v1H3zm1 0h1v1H4zm1 0h1v1H5zm1 0h1v1H6zm1 0h1v1H7zm1 0h1v1H8zm1 0h1v1H9zm1 0h1v1h-1z"/>
  <path fill="#E2E2E2" d="M11 18h1v1h-1z"/>
  <path fill="#00D54D" d="M12 18h1v1h-1zm1 0h1v1h-1zm1 0h1v1h-1zm1 0h1v1h-1z"/>
  <path fill="#E2E2E2" d="M16 18h1v1h-1zm1 0h1v1h-1zm1 0h1v1h-1zm1 0h1v1h-1z"/>
  <path fill="#00D54D" d="M20 18h1v1h-1zm1 0h1v1h-1z"/>
  <path fill="#E2E2E2" d="M22 18h1v1h-1zm1 0h1v1h-1z"/>
  <path fill="#00D54D" d="M24 18h1v1h-1z"/>
  <path fill="#E2E2E2" d="M25 18h1v1h-1zm1 0h1v1h-1z"/>
  <path fill="#00D54D" d="M27 18h1v1h-1zm1 0h1v1h-1zm1 0h1v1h-1zm1 0h1v1h-1z"/>
  <path fill="#E2E2E2" d="M31 18h1v1h-1zm1 0h1v1h-1z"/>
  <path fill="#00D54D" d="M33 18h1v1h-1zm1 0h1v1h-1zm1 0h1v1h-1zm1 0h1v1h-1z"/>
  <path fill="#E2E2E2" d="M37 18h1v1h-1zm1 0h1v1h-1z"/>
  <path fill="#00D54D" d="M39 18h1v1h-1z"/>
  <path fill="#E2E2E2" d="M40 18h1v1h-1zm1 0h1v1h-1z"/>
  <path fill="#00D54D" d="M42 18h1v1h-1zm1 0h1v1h-1z"/>
  <path fill="#E2E2E2" d="M44 18h1v1h-1zm1 0h1v1h-1zm1 0h1v1h-1zm1 0h1v1h-1z"/>
  <path fill="#7900A4" d="M48 18h1v1h-1zm1 0h1v1h-1zm1 0h1v1h-1zm1 0h1v1h-1z"/>
  <path fill="#E2E2E2" d="M52 18h1v1h-1z"/>
  <path fill="#7900A4" d="M53 18h1v1h-1zm1 0h1v1h-1zm1 0h1v1h-1zm1 0h1v1h-1zm1 0h1v1h-1zm1 0h1v1h-1zm1 0h1v1h-1zm1 0h1v1h-1zm1 0h1v1h-1zm1 0h1v1h-1zm1 0h1v1h-1z"/>
  <path fill="#00D54D" d="M0 19h1v1H0zm1 0h1v1H1zm1 0h1v1H2zm1 0h1v1H3zm1 0h1v1H4zm1 0h1v1H5zm1 0h1v1H6zm1 0h1v1H7zm1 0h1v1H8zm1 0h1v1H9zm1 0h1v1h-1zm1 0h1v1h-1z"/>
  <path fill="#E2E2E2" d="M12 19h1v1h-1z"/>
  <path fill="#00D54D" d="M13 19h1v1h-1zm1 0h1v1h-1zm1 0h1v1h-1z"/>
  <path fill="#E2E2E2" d="M16 19h1v1h-1z"/>
  <path fill="#00D54D" d="M17 19h1v1h-1z"/>
  <path fill="#E2E2E2" d="M18 19h1v1h-1zm1 0h1v1h-1zm1 0h1v1h-1z"/>
  <path fill="#00D54D" d="M21 19h1v1h-1zm1 0h1v1h-1zm1 0h1v1h-1z"/>
  <path fill="#E2E2E2" d="M24 19h1v1h-1z"/>
  <path fill="#00D54D" d="M25 19h1v1h-1zm1 0h1v1h-1zm1 0h1v1h-1zm1 0h1v1h-1zm1 0h1v1h-1zm1 0h1v1h-1z"/>
  <path fill="#E2E2E2" d="M31 19h1v1h-1zm1 0h1v1h-1z"/>
  <path fill="#00D54D" d="M33 19h1v1h-1zm1 0h1v1h-1zm1 0h1v1h-1zm1 0h1v1h-1zm1 0h1v1h-1zm1 0h1v1h-1z"/>
  <path fill="#E2E2E2" d="M39 19h1v1h-1z"/>
  <path fill="#00D54D" d="M40 19h1v1h-1zm1 0h1v1h-1zm1 0h1v1h-1z"/>
  <path fill="#E2E2E2" d="M43 19h1v1h-1zm1 0h1v1h-1zm1 0h1v1h-1z"/>
  <path fill="#7900A4" d="M46 19h1v1h-1z"/>
  <path fill="#E2E2E2" d="M47 19h1v1h-1z"/>
  <path fill="#7900A4" d="M48 19h1v1h-1zm1 0h1v1h-1zm1 0h1v1h-1z"/>
  <path fill="#E2E2E2" d="M51 19h1v1h-1z"/>
  <path fill="#7900A4" d="M52 19h1v1h-1zm1 0h1v1h-1zm1 0h1v1h-1zm1 0h1v1h-1zm1 0h1v1h-1zm1 0h1v1h-1zm1 0h1v1h-1zm1 0h1v1h-1zm1 0h1v1h-1zm1 0h1v1h-1zm1 0h1v1h-1zm1 0h1v1h-1z"/>
  <path fill="#00D54D" d="M0 20h1v1H0zm1 0h1v1H1zm1 0h1v1H2zm1 0h1v1H3zm1 0h1v1H4zm1 0h1v1H5zm1 0h1v1H6zm1 0h1v1H7zm1 0h1v1H8zm1 0h1v1H9zm1 0h1v1h-1zm1 0h1v1h-1z"/>
  <path fill="#E2E2E2" d="M12 20h1v1h-1z"/>
  <path fill="#00D54D" d="M13 20h1v1h-1zm1 0h1v1h-1zm1 0h1v1h-1zm1 0h1v1h-1z"/>
  <path fill="#E2E2E2" d="M17 20h1v1h-1z"/>
  <path fill="#00D54D" d="M18 20h1v1h-1z"/>
  <path fill="#E2E2E2" d="M19 20h1v1h-1zm1 0h1v1h-1zm1 0h1v1h-1z"/>
  <path fill="#00D54D" d="M22 20h1v1h-1zm1 0h1v1h-1zm1 0h1v1h-1zm1 0h1v1h-1zm1 0h1v1h-1zm1 0h1v1h-1zm1 0h1v1h-1zm1 0h1v1h-1zm1 0h1v1h-1z"/>
  <path fill="#E2E2E2" d="M31 20h1v1h-1zm1 0h1v1h-1z"/>
  <path fill="#00D54D" d="M33 20h1v1h-1zm1 0h1v1h-1zm1 0h1v1h-1zm1 0h1v1h-1zm1 0h1v1h-1zm1 0h1v1h-1zm1 0h1v1h-1zm1 0h1v1h-1zm1 0h1v1h-1z"/>
  <path fill="#E2E2E2" d="M42 20h1v1h-1zm1 0h1v1h-1zm1 0h1v1h-1z"/>
  <path fill="#7900A4" d="M45 20h1v1h-1z"/>
  <path fill="#E2E2E2" d="M46 20h1v1h-1z"/>
  <path fill="#7900A4" d="M47 20h1v1h-1zm1 0h1v1h-1zm1 0h1v1h-1zm1 0h1v1h-1z"/>
  <path fill="#E2E2E2" d="M51 20h1v1h-1z"/>
  <path fill="#7900A4" d="M52 20h1v1h-1zm1 0h1v1h-1zm1 0h1v1h-1zm1 0h1v1h-1zm1 0h1v1h-1zm1 0h1v1h-1zm1 0h1v1h-1zm1 0h1v1h-1zm1 0h1v1h-1zm1 0h1v1h-1zm1 0h1v1h-1zm1 0h1v1h-1z"/>
  <path fill="#00D54D" d="M0 21h1v1H0zm1 0h1v1H1zm1 0h1v1H2zm1 0h1v1H3zm1 0h1v1H4zm1 0h1v1H5zm1 0h1v1H6zm1 0h1v1H7zm1 0h1v1H8zm1 0h1v1H9zm1 0h1v1h-1z"/>
  <path fill="#E2E2E2" d="M11 21h1v1h-1z"/>
  <path fill="#00D54D" d="M12 21h1v1h-1zm1 0h1v1h-1zm1 0h1v1h-1zm1 0h1v1h-1zm1 0h1v1h-1z"/>
  <path fill="#E2E2E2" d="M17 21h1v1h-1z"/>
  <path fill="#00D54D" d="M18 21h1v1h-1zm1 0h1v1h-1z"/>
  <path fill="#E2E2E2" d="M20 21h1v1h-1zm1 0h1v1h-1zm1 0h1v1h-1z"/>
  <path fill="#00D54D" d="M23 21h1v1h-1zm1 0h1v1h-1zm1 0h1v1h-1zm1 0h1v1h-1zm1 0h1v1h-1zm1 0h1v1h-1zm1 0h1v1h-1z"/>
  <path fill="red" d="M30 21h1v1h-1z"/>
  <path d="M31 21h1v1h-1zm1 0h1v1h-1z"/>
  <path fill="red" d="M33 21h1v1h-1z"/>
  <path fill="#00D54D" d="M34 21h1v1h-1zm1 0h1v1h-1zm1 0h1v1h-1zm1 0h1v1h-1zm1 0h1v1h-1zm1 0h1v1h-1zm1 0h1v1h-1z"/>
  <path fill="#E2E2E2" d="M41 21h1v1h-1zm1 0h1v1h-1zm1 0h1v1h-1z"/>
  <path fill="#7900A4" d="M44 21h1v1h-1zm1 0h1v1h-1z"/>
  <path fill="#E2E2E2" d="M46 21h1v1h-1z"/>
  <path fill="#7900A4" d="M47 21h1v1h-1zm1 0h1v1h-1zm1 0h1v1h-1zm1 0h1v1h-1zm1 0h1v1h-1z"/>
  <path fill="#E2E2E2" d="M52 21h1v1h-1z"/>
  <path fill="#7900A4" d="M53 21h1v1h-1zm1 0h1v1h-1zm1 0h1v1h-1zm1 0h1v1h-1zm1 0h1v1h-1zm1 0h1v1h-1zm1 0h1v1h-1zm1 0h1v1h-1zm1 0h1v1h-1zm1 0h1v1h-1zm1 0h1v1h-1z"/>
  <path fill="#00D54D" d="M0 22h1v1H0zm1 0h1v1H1zm1 0h1v1H2zm1 0h1v1H3zm1 0h1v1H4zm1 0h1v1H5zm1 0h1v1H6zm1 0h1v1H7zm1 0h1v1H8zm1 0h1v1H9zm1 0h1v1h-1z"/>
  <path fill="#E2E2E2" d="M11 22h1v1h-1z"/>
  <path fill="#00D54D" d="M12 22h1v1h-1zm1 0h1v1h-1zm1 0h1v1h-1zm1 0h1v1h-1zm1 0h1v1h-1zm1 0h1v1h-1z"/>
  <path fill="#E2E2E2" d="M18 22h1v1h-1z"/>
  <path fill="#00D54D" d="M19 22h1v1h-1zm1 0h1v1h-1z"/>
  <path fill="#E2E2E2" d="M21 22h1v1h-1zm1 0h1v1h-1zm1 0h1v1h-1z"/>
  <path fill="#00D54D" d="M24 22h1v1h-1zm1 0h1v1h-1zm1 0h1v1h-1zm1 0h1v1h-1zm1 0h1v1h-1z"/>
  <path d="M29 22h1v1h-1z"/>
  <path fill="red" d="M30 22h1v1h-1z"/>
  <path fill="gray" d="M31 22h1v1h-1zm1 0h1v1h-1z"/>
  <path fill="red" d="M33 22h1v1h-1z"/>
  <path d="M34 22h1v1h-1z"/>
  <path fill="#00D54D" d="M35 22h1v1h-1zm1 0h1v1h-1zm1 0h1v1h-1zm1 0h1v1h-1zm1 0h1v1h-1z"/>
  <path fill="#E2E2E2" d="M40 22h1v1h-1zm1 0h1v1h-1zm1 0h1v1h-1z"/>
  <path fill="#7900A4" d="M43 22h1v1h-1zm1 0h1v1h-1z"/>
  <path fill="#E2E2E2" d="M45 22h1v1h-1z"/>
  <path fill="#7900A4" d="M46 22h1v1h-1zm1 0h1v1h-1zm1 0h1v1h-1zm1 0h1v1h-1zm1 0h1v1h-1zm1 0h1v1h-1z"/>
  <path fill="#E2E2E2" d="M52 22h1v1h-1z"/>
  <path fill="#7900A4" d="M53 22h1v1h-1zm1 0h1v1h-1zm1 0h1v1h-1zm1 0h1v1h-1zm1 0h1v1h-1zm1 0h1v1h-1zm1 0h1v1h-1zm1 0h1v1h-1zm1 0h1v1h-1zm1 0h1v1h-1zm1 0h1v1h-1z"/>
  <path fill="#00D54D" d="M0 23h1v1H0zm1 0h1v1H1zm1 0h1v1H2zm1 0h1v1H3zm1 0h1v1H4zm1 0h1v1H5zm1 0h1v1H6zm1 0h1v1H7zm1 0h1v1H8zm1 0h1v1H9z"/>
  <path fill="#E2E2E2" d="M10 23h1v1h-1z"/>
  <path fill="#00D54D" d="M11 23h1v1h-1zm1 0h1v1h-1zm1 0h1v1h-1zm1 0h1v1h-1zm1 0h1v1h-1zm1 0h1v1h-1zm1 0h1v1h-1z"/>
  <path fill="#E2E2E2" d="M18 23h1v1h-1z"/>
  <path fill="#00D54D" d="M19 23h1v1h-1zm1 0h1v1h-1zm1 0h1v1h-1z"/>
  <path fill="#E1E1E1" d="M22 23h1v1h-1z"/>
  <path d="M23 23h1v1h-1z"/>
  <path fill="#E2E2E2" d="M24 23h1v1h-1zm1 0h1v1h-1zm1 0h1v1h-1z"/>
  <path fill="#00D54D" d="M27 23h1v1h-1zm1 0h1v1h-1z"/>
  <path d="M29 23h1v1h-1z"/>
  <path fill="gray" d="M30 23h1v1h-1zm1 0h1v1h-1zm1 0h1v1h-1zm1 0h1v1h-1z"/>
  <path d="M34 23h1v1h-1z"/>
  <path fill="#00D54D" d="M35 23h1v1h-1zm1 0h1v1h-1z"/>
  <path fill="#E2E2E2" d="M37 23h1v1h-1zm1 0h1v1h-1zm1 0h1v1h-1z"/>
  <path d="M40 23h1v1h-1z"/>
  <path fill="#E2E2E2" d="M41 23h1v1h-1z"/>
  <path fill="#7900A4" d="M42 23h1v1h-1zm1 0h1v1h-1zm1 0h1v1h-1z"/>
  <path fill="#E2E2E2" d="M45 23h1v1h-1z"/>
  <path fill="#7900A4" d="M46 23h1v1h-1zm1 0h1v1h-1zm1 0h1v1h-1zm1 0h1v1h-1zm1 0h1v1h-1zm1 0h1v1h-1zm1 0h1v1h-1z"/>
  <path fill="#E2E2E2" d="M53 23h1v1h-1z"/>
  <path fill="#7900A4" d="M54 23h1v1h-1zm1 0h1v1h-1zm1 0h1v1h-1zm1 0h1v1h-1zm1 0h1v1h-1zm1 0h1v1h-1zm1 0h1v1h-1zm1 0h1v1h-1zm1 0h1v1h-1zm1 0h1v1h-1z"/>
  <path fill="#00D54D" d="M0 24h1v1H0zm1 0h1v1H1zm1 0h1v1H2zm1 0h1v1H3zm1 0h1v1H4zm1 0h1v1H5zm1 0h1v1H6zm1 0h1v1H7zm1 0h1v1H8zm1 0h1v1H9z"/>
  <path fill="#E2E2E2" d="M10 24h1v1h-1z"/>
  <path fill="#00D54D" d="M11 24h1v1h-1zm1 0h1v1h-1zm1 0h1v1h-1zm1 0h1v1h-1zm1 0h1v1h-1zm1 0h1v1h-1zm1 0h1v1h-1zm1 0h1v1h-1z"/>
  <path fill="#E2E2E2" d="M19 24h1v1h-1z"/>
  <path fill="#00D54D" d="M20 24h1v1h-1zm1 0h1v1h-1zm1 0h1v1h-1z"/>
  <path d="M23 24h1v1h-1z"/>
  <path fill="#E2E2E2" d="M24 24h1v1h-1zm1 0h1v1h-1z"/>
  <path fill="#00D54D" d="M26 24h1v1h-1z"/>
  <path fill="#E2E2E2" d="M27 24h1v1h-1zm1 0h1v1h-1z"/>
  <path d="M29 24h1v1h-1z"/>
  <path fill="gray" d="M30 24h1v1h-1zm1 0h1v1h-1zm1 0h1v1h-1zm1 0h1v1h-1z"/>
  <path d="M34 24h1v1h-1z"/>
  <path fill="#E2E2E2" d="M35 24h1v1h-1zm1 0h1v1h-1z"/>
  <path fill="#00D54D" d="M37 24h1v1h-1z"/>
  <path fill="#E2E2E2" d="M38 24h1v1h-1zm1 0h1v1h-1z"/>
  <path d="M40 24h1v1h-1z"/>
  <path fill="#7900A4" d="M41 24h1v1h-1zm1 0h1v1h-1zm1 0h1v1h-1z"/>
  <path fill="#E2E2E2" d="M44 24h1v1h-1z"/>
  <path fill="#7900A4" d="M45 24h1v1h-1zm1 0h1v1h-1zm1 0h1v1h-1zm1 0h1v1h-1zm1 0h1v1h-1zm1 0h1v1h-1zm1 0h1v1h-1zm1 0h1v1h-1z"/>
  <path fill="#E2E2E2" d="M53 24h1v1h-1z"/>
  <path fill="#7900A4" d="M54 24h1v1h-1zm1 0h1v1h-1zm1 0h1v1h-1zm1 0h1v1h-1zm1 0h1v1h-1zm1 0h1v1h-1zm1 0h1v1h-1zm1 0h1v1h-1zm1 0h1v1h-1zm1 0h1v1h-1z"/>
  <path fill="#00D54D" d="M0 25h1v1H0zm1 0h1v1H1zm1 0h1v1H2zm1 0h1v1H3zm1 0h1v1H4zm1 0h1v1H5zm1 0h1v1H6zm1 0h1v1H7zm1 0h1v1H8z"/>
  <path fill="#E2E2E2" d="M9 25h1v1H9z"/>
  <path fill="#00D54D" d="M10 25h1v1h-1zm1 0h1v1h-1zm1 0h1v1h-1zm1 0h1v1h-1zm1 0h1v1h-1zm1 0h1v1h-1zm1 0h1v1h-1zm1 0h1v1h-1z"/>
  <path fill="#E2E2E2" d="M18 25h1v1h-1z"/>
  <path fill="#00D54D" d="M19 25h1v1h-1zm1 0h1v1h-1zm1 0h1v1h-1z"/>
  <path fill="#00D44D" d="M22 25h1v1h-1z"/>
  <path d="M23 25h1v1h-1z"/>
  <path fill="#E2E2E2" d="M24 25h1v1h-1zm1 0h1v1h-1zm1 0h1v1h-1z"/>
  <path fill="#00D54D" d="M27 25h1v1h-1zm1 0h1v1h-1z"/>
  <path d="M29 25h1v1h-1zm1 0h1v1h-1z"/>
  <path fill="gray" d="M31 25h1v1h-1zm1 0h1v1h-1z"/>
  <path d="M33 25h1v1h-1zm1 0h1v1h-1z"/>
  <path fill="#00D54D" d="M35 25h1v1h-1zm1 0h1v1h-1z"/>
  <path fill="#E2E2E2" d="M37 25h1v1h-1zm1 0h1v1h-1zm1 0h1v1h-1z"/>
  <path d="M40 25h1v1h-1z"/>
  <path fill="#7900A4" d="M41 25h1v1h-1zm1 0h1v1h-1zm1 0h1v1h-1zm1 0h1v1h-1z"/>
  <path fill="#E2E2E2" d="M45 25h1v1h-1z"/>
  <path fill="#7900A4" d="M46 25h1v1h-1zm1 0h1v1h-1zm1 0h1v1h-1zm1 0h1v1h-1zm1 0h1v1h-1zm1 0h1v1h-1zm1 0h1v1h-1zm1 0h1v1h-1z"/>
  <path fill="#E2E2E2" d="M54 25h1v1h-1z"/>
  <path fill="#7900A4" d="M55 25h1v1h-1zm1 0h1v1h-1zm1 0h1v1h-1zm1 0h1v1h-1zm1 0h1v1h-1zm1 0h1v1h-1zm1 0h1v1h-1zm1 0h1v1h-1zm1 0h1v1h-1z"/>
  <path fill="#00D54D" d="M0 26h1v1H0zm1 0h1v1H1zm1 0h1v1H2zm1 0h1v1H3zm1 0h1v1H4zm1 0h1v1H5zm1 0h1v1H6zm1 0h1v1H7zm1 0h1v1H8z"/>
  <path fill="#E2E2E2" d="M9 26h1v1H9z"/>
  <path fill="#00D54D" d="M10 26h1v1h-1zm1 0h1v1h-1zm1 0h1v1h-1zm1 0h1v1h-1zm1 0h1v1h-1zm1 0h1v1h-1zm1 0h1v1h-1zm1 0h1v1h-1z"/>
  <path fill="#E2E2E2" d="M18 26h1v1h-1z"/>
  <path fill="#00D54D" d="M19 26h1v1h-1zm1 0h1v1h-1zm1 0h1v1h-1zm1 0h1v1h-1z"/>
  <path d="M23 26h1v1h-1zm1 0h1v1h-1z"/>
  <path fill="#E2E2E2" d="M25 26h1v1h-1zm1 0h1v1h-1zm1 0h1v1h-1z"/>
  <path fill="#00D54D" d="M28 26h1v1h-1zm1 0h1v1h-1z"/>
  <path d="M30 26h1v1h-1zm1 0h1v1h-1zm1 0h1v1h-1zm1 0h1v1h-1z"/>
  <path fill="#00D54D" d="M34 26h1v1h-1zm1 0h1v1h-1z"/>
  <path fill="#E2E2E2" d="M36 26h1v1h-1zm1 0h1v1h-1zm1 0h1v1h-1z"/>
  <path d="M39 26h1v1h-1zm1 0h1v1h-1z"/>
  <path fill="#7900A4" d="M41 26h1v1h-1zm1 0h1v1h-1zm1 0h1v1h-1zm1 0h1v1h-1z"/>
  <path fill="#E2E2E2" d="M45 26h1v1h-1z"/>
  <path fill="#7900A4" d="M46 26h1v1h-1zm1 0h1v1h-1zm1 0h1v1h-1zm1 0h1v1h-1zm1 0h1v1h-1zm1 0h1v1h-1zm1 0h1v1h-1zm1 0h1v1h-1z"/>
  <path fill="#E2E2E2" d="M54 26h1v1h-1z"/>
  <path fill="#7900A4" d="M55 26h1v1h-1zm1 0h1v1h-1zm1 0h1v1h-1zm1 0h1v1h-1zm1 0h1v1h-1zm1 0h1v1h-1zm1 0h1v1h-1zm1 0h1v1h-1zm1 0h1v1h-1z"/>
  <path fill="#00D54D" d="M0 27h1v1H0zm1 0h1v1H1zm1 0h1v1H2zm1 0h1v1H3zm1 0h1v1H4zm1 0h1v1H5zm1 0h1v1H6zm1 0h1v1H7z"/>
  <path fill="#E2E2E2" d="M8 27h1v1H8z"/>
  <path fill="#00D54D" d="M9 27h1v1H9zm1 0h1v1h-1zm1 0h1v1h-1zm1 0h1v1h-1zm1 0h1v1h-1zm1 0h1v1h-1zm1 0h1v1h-1zm1 0h1v1h-1z"/>
  <path fill="#E2E2E2" d="M17 27h1v1h-1z"/>
  <path fill="#00D54D" d="M18 27h1v1h-1zm1 0h1v1h-1zm1 0h1v1h-1zm1 0h1v1h-1zm1 0h1v1h-1zm1 0h1v1h-1z"/>
  <path d="M24 27h1v1h-1zm1 0h1v1h-1zm1 0h1v1h-1zm1 0h1v1h-1zm1 0h1v1h-1zm1 0h1v1h-1zm1 0h1v1h-1z"/>
  <path fill="gray" d="M31 27h1v1h-1zm1 0h1v1h-1z"/>
  <path d="M33 27h1v1h-1zm1 0h1v1h-1zm1 0h1v1h-1zm1 0h1v1h-1zm1 0h1v1h-1zm1 0h1v1h-1zm1 0h1v1h-1z"/>
  <path fill="#7900A4" d="M40 27h1v1h-1zm1 0h1v1h-1zm1 0h1v1h-1zm1 0h1v1h-1zm1 0h1v1h-1zm1 0h1v1h-1z"/>
  <path fill="#E2E2E2" d="M46 27h1v1h-1z"/>
  <path fill="#7900A4" d="M47 27h1v1h-1zm1 0h1v1h-1zm1 0h1v1h-1zm1 0h1v1h-1zm1 0h1v1h-1zm1 0h1v1h-1zm1 0h1v1h-1zm1 0h1v1h-1z"/>
  <path fill="#E2E2E2" d="M55 27h1v1h-1z"/>
  <path fill="#7900A4" d="M56 27h1v1h-1zm1 0h1v1h-1zm1 0h1v1h-1zm1 0h1v1h-1zm1 0h1v1h-1zm1 0h1v1h-1zm1 0h1v1h-1zm1 0h1v1h-1z"/>
  <path fill="#00D54D" d="M0 28h1v1H0zm1 0h1v1H1zm1 0h1v1H2zm1 0h1v1H3zm1 0h1v1H4zm1 0h1v1H5zm1 0h1v1H6zm1 0h1v1H7z"/>
  <path fill="#E2E2E2" d="M8 28h1v1H8z"/>
  <path fill="#00D54D" d="M9 28h1v1H9zm1 0h1v1h-1zm1 0h1v1h-1zm1 0h1v1h-1zm1 0h1v1h-1zm1 0h1v1h-1zm1 0h1v1h-1zm1 0h1v1h-1z"/>
  <path fill="#E2E2E2" d="M17 28h1v1h-1z"/>
  <path fill="#00D54D" d="M18 28h1v1h-1zm1 0h1v1h-1zm1 0h1v1h-1zm1 0h1v1h-1zm1 0h1v1h-1zm1 0h1v1h-1z"/>
  <path fill="#E2E2E2" d="M24 28h1v1h-1z"/>
  <path fill="#00D54D" d="M25 28h1v1h-1zm1 0h1v1h-1z"/>
  <path fill="#E2E2E2" d="M27 28h1v1h-1z"/>
  <path d="M28 28h1v1h-1zm1 0h1v1h-1z"/>
  <path fill="gray" d="M30 28h1v1h-1zm1 0h1v1h-1zm1 0h1v1h-1zm1 0h1v1h-1z"/>
  <path d="M34 28h1v1h-1zm1 0h1v1h-1z"/>
  <path fill="#E2E2E2" d="M36 28h1v1h-1z"/>
  <path fill="#7900A4" d="M37 28h1v1h-1zm1 0h1v1h-1z"/>
  <path fill="#E2E2E2" d="M39 28h1v1h-1z"/>
  <path fill="#7900A4" d="M40 28h1v1h-1zm1 0h1v1h-1zm1 0h1v1h-1zm1 0h1v1h-1zm1 0h1v1h-1zm1 0h1v1h-1z"/>
  <path fill="#E2E2E2" d="M46 28h1v1h-1z"/>
  <path fill="#7900A4" d="M47 28h1v1h-1zm1 0h1v1h-1zm1 0h1v1h-1zm1 0h1v1h-1zm1 0h1v1h-1zm1 0h1v1h-1zm1 0h1v1h-1zm1 0h1v1h-1z"/>
  <path fill="#E2E2E2" d="M55 28h1v1h-1z"/>
  <path fill="#7900A4" d="M56 28h1v1h-1zm1 0h1v1h-1zm1 0h1v1h-1zm1 0h1v1h-1zm1 0h1v1h-1zm1 0h1v1h-1zm1 0h1v1h-1zm1 0h1v1h-1z"/>
  <path fill="#00D54D" d="M0 29h1v1H0zm1 0h1v1H1zm1 0h1v1H2zm1 0h1v1H3zm1 0h1v1H4zm1 0h1v1H5zm1 0h1v1H6z"/>
  <path fill="#E2E2E2" d="M7 29h1v1H7z"/>
  <path fill="#00D54D" d="M8 29h1v1H8zm1 0h1v1H9zm1 0h1v1h-1zm1 0h1v1h-1zm1 0h1v1h-1zm1 0h1v1h-1zm1 0h1v1h-1zm1 0h1v1h-1z"/>
  <path fill="#E2E2E2" d="M16 29h1v1h-1z"/>
  <path fill="#00D54D" d="M17 29h1v1h-1zm1 0h1v1h-1zm1 0h1v1h-1zm1 0h1v1h-1zm1 0h1v1h-1zm1 0h1v1h-1z"/>
  <path fill="#E2E2E2" d="M23 29h1v1h-1z"/>
  <path fill="#00D54D" d="M24 29h1v1h-1zm1 0h1v1h-1zm1 0h1v1h-1z"/>
  <path d="M27 29h1v1h-1zm1 0h1v1h-1z"/>
  <path fill="gray" d="M29 29h1v1h-1zm1 0h1v1h-1zm1 0h1v1h-1zm1 0h1v1h-1zm1 0h1v1h-1zm1 0h1v1h-1z"/>
  <path d="M35 29h1v1h-1zm1 0h1v1h-1z"/>
  <path fill="#7900A4" d="M37 29h1v1h-1zm1 0h1v1h-1zm1 0h1v1h-1z"/>
  <path fill="#E2E2E2" d="M40 29h1v1h-1z"/>
  <path fill="#7900A4" d="M41 29h1v1h-1zm1 0h1v1h-1zm1 0h1v1h-1zm1 0h1v1h-1zm1 0h1v1h-1zm1 0h1v1h-1z"/>
  <path fill="#E2E2E2" d="M47 29h1v1h-1z"/>
  <path fill="#7900A4" d="M48 29h1v1h-1zm1 0h1v1h-1zm1 0h1v1h-1zm1 0h1v1h-1zm1 0h1v1h-1zm1 0h1v1h-1zm1 0h1v1h-1zm1 0h1v1h-1z"/>
  <path fill="#E2E2E2" d="M56 29h1v1h-1z"/>
  <path fill="#7900A4" d="M57 29h1v1h-1zm1 0h1v1h-1zm1 0h1v1h-1zm1 0h1v1h-1zm1 0h1v1h-1zm1 0h1v1h-1zm1 0h1v1h-1z"/>
  <path fill="#00D54D" d="M0 30h1v1H0zm1 0h1v1H1zm1 0h1v1H2zm1 0h1v1H3zm1 0h1v1H4zm1 0h1v1H5z"/>
  <path fill="#E2E2E2" d="M6 30h1v1H6z"/>
  <path fill="#00D54D" d="M7 30h1v1H7zm1 0h1v1H8zm1 0h1v1H9zm1 0h1v1h-1zm1 0h1v1h-1zm1 0h1v1h-1zm1 0h1v1h-1zm1 0h1v1h-1z"/>
  <path fill="#E2E2E2" d="M15 30h1v1h-1z"/>
  <path fill="#00D54D" d="M16 30h1v1h-1zm1 0h1v1h-1zm1 0h1v1h-1zm1 0h1v1h-1zm1 0h1v1h-1zm1 0h1v1h-1z"/>
  <path fill="#E2E2E2" d="M22 30h1v1h-1z"/>
  <path d="M23 30h1v1h-1zm1 0h1v1h-1zm1 0h1v1h-1zm1 0h1v1h-1zm1 0h1v1h-1z"/>
  <path fill="gray" d="M28 30h1v1h-1zm1 0h1v1h-1zm1 0h1v1h-1zm1 0h1v1h-1zm1 0h1v1h-1zm1 0h1v1h-1zm1 0h1v1h-1zm1 0h1v1h-1z"/>
  <path d="M36 30h1v1h-1zm1 0h1v1h-1zm1 0h1v1h-1zm1 0h1v1h-1zm1 0h1v1h-1z"/>
  <path fill="#E2E2E2" d="M41 30h1v1h-1z"/>
  <path fill="#7900A4" d="M42 30h1v1h-1zm1 0h1v1h-1zm1 0h1v1h-1zm1 0h1v1h-1zm1 0h1v1h-1zm1 0h1v1h-1z"/>
  <path fill="#E2E2E2" d="M48 30h1v1h-1z"/>
  <path fill="#7900A4" d="M49 30h1v1h-1zm1 0h1v1h-1zm1 0h1v1h-1zm1 0h1v1h-1zm1 0h1v1h-1zm1 0h1v1h-1zm1 0h1v1h-1zm1 0h1v1h-1z"/>
  <path fill="#E2E2E2" d="M57 30h1v1h-1z"/>
  <path fill="#7900A4" d="M58 30h1v1h-1zm1 0h1v1h-1zm1 0h1v1h-1zm1 0h1v1h-1zm1 0h1v1h-1zm1 0h1v1h-1z"/>
  <path fill="#00D54D" d="M0 31h1v1H0zm1 0h1v1H1zm1 0h1v1H2zm1 0h1v1H3zm1 0h1v1H4zm1 0h1v1H5z"/>
  <path fill="#E2E2E2" d="M6 31h1v1H6zm1 0h1v1H7zm1 0h1v1H8zm1 0h1v1H9zm1 0h1v1h-1zm1 0h1v1h-1zm1 0h1v1h-1zm1 0h1v1h-1zm1 0h1v1h-1zm1 0h1v1h-1zm1 0h1v1h-1zm1 0h1v1h-1zm1 0h1v1h-1zm1 0h1v1h-1zm1 0h1v1h-1zm1 0h1v1h-1z"/>
  <path d="M22 31h1v1h-1zm1 0h1v1h-1z"/>
  <path fill="#E2E2E2" d="M24 31h1v1h-1zm1 0h1v1h-1zm1 0h1v1h-1z"/>
  <path d="M27 31h1v1h-1z"/>
  <path fill="gray" d="M28 31h1v1h-1zm1 0h1v1h-1zm1 0h1v1h-1zm1 0h1v1h-1zm1 0h1v1h-1zm1 0h1v1h-1zm1 0h1v1h-1zm1 0h1v1h-1z"/>
  <path d="M36 31h1v1h-1z"/>
  <path fill="#E2E2E2" d="M37 31h1v1h-1zm1 0h1v1h-1zm1 0h1v1h-1z"/>
  <path d="M40 31h1v1h-1zm1 0h1v1h-1z"/>
  <path fill="#E2E2E2" d="M42 31h1v1h-1zm1 0h1v1h-1zm1 0h1v1h-1zm1 0h1v1h-1zm1 0h1v1h-1zm1 0h1v1h-1zm1 0h1v1h-1zm1 0h1v1h-1zm1 0h1v1h-1zm1 0h1v1h-1zm1 0h1v1h-1zm1 0h1v1h-1zm1 0h1v1h-1zm1 0h1v1h-1zm1 0h1v1h-1zm1 0h1v1h-1z"/>
  <path fill="#7900A4" d="M58 31h1v1h-1zm1 0h1v1h-1zm1 0h1v1h-1zm1 0h1v1h-1zm1 0h1v1h-1zm1 0h1v1h-1z"/>
  <path fill="#00D54D" d="M0 32h1v1H0zm1 0h1v1H1zm1 0h1v1H2zm1 0h1v1H3zm1 0h1v1H4zm1 0h1v1H5z"/>
  <path fill="#E2E2E2" d="M6 32h1v1H6zm1 0h1v1H7zm1 0h1v1H8zm1 0h1v1H9zm1 0h1v1h-1zm1 0h1v1h-1zm1 0h1v1h-1zm1 0h1v1h-1zm1 0h1v1h-1zm1 0h1v1h-1zm1 0h1v1h-1zm1 0h1v1h-1zm1 0h1v1h-1zm1 0h1v1h-1zm1 0h1v1h-1zm1 0h1v1h-1z"/>
  <path d="M22 32h1v1h-1z"/>
  <path fill="#E2E2E2" d="M23 32h1v1h-1zm1 0h1v1h-1zm1 0h1v1h-1zm1 0h1v1h-1z"/>
  <path d="M27 32h1v1h-1zm1 0h1v1h-1z"/>
  <path fill="gray" d="M29 32h1v1h-1zm1 0h1v1h-1zm1 0h1v1h-1zm1 0h1v1h-1zm1 0h1v1h-1zm1 0h1v1h-1z"/>
  <path d="M35 32h1v1h-1zm1 0h1v1h-1z"/>
  <path fill="#E2E2E2" d="M37 32h1v1h-1zm1 0h1v1h-1zm1 0h1v1h-1zm1 0h1v1h-1z"/>
  <path d="M41 32h1v1h-1z"/>
  <path fill="#E2E2E2" d="M42 32h1v1h-1zm1 0h1v1h-1zm1 0h1v1h-1zm1 0h1v1h-1zm1 0h1v1h-1zm1 0h1v1h-1zm1 0h1v1h-1zm1 0h1v1h-1zm1 0h1v1h-1zm1 0h1v1h-1zm1 0h1v1h-1zm1 0h1v1h-1zm1 0h1v1h-1zm1 0h1v1h-1zm1 0h1v1h-1zm1 0h1v1h-1z"/>
  <path fill="#7900A4" d="M58 32h1v1h-1zm1 0h1v1h-1zm1 0h1v1h-1zm1 0h1v1h-1zm1 0h1v1h-1zm1 0h1v1h-1z"/>
  <path fill="#00D54D" d="M0 33h1v1H0zm1 0h1v1H1zm1 0h1v1H2zm1 0h1v1H3zm1 0h1v1H4zm1 0h1v1H5z"/>
  <path fill="#E2E2E2" d="M6 33h1v1H6z"/>
  <path fill="#00D54D" d="M7 33h1v1H7zm1 0h1v1H8zm1 0h1v1H9zm1 0h1v1h-1zm1 0h1v1h-1zm1 0h1v1h-1zm1 0h1v1h-1zm1 0h1v1h-1z"/>
  <path fill="#E2E2E2" d="M15 33h1v1h-1z"/>
  <path fill="#00D54D" d="M16 33h1v1h-1zm1 0h1v1h-1zm1 0h1v1h-1zm1 0h1v1h-1zm1 0h1v1h-1zm1 0h1v1h-1z"/>
  <path d="M22 33h1v1h-1z"/>
  <path fill="#00D54D" d="M23 33h1v1h-1zm1 0h1v1h-1zm1 0h1v1h-1zm1 0h1v1h-1zm1 0h1v1h-1z"/>
  <path d="M28 33h1v1h-1zm1 0h1v1h-1z"/>
  <path fill="gray" d="M30 33h1v1h-1zm1 0h1v1h-1zm1 0h1v1h-1zm1 0h1v1h-1z"/>
  <path d="M34 33h1v1h-1zm1 0h1v1h-1z"/>
  <path fill="#7900A4" d="M36 33h1v1h-1zm1 0h1v1h-1zm1 0h1v1h-1zm1 0h1v1h-1zm1 0h1v1h-1z"/>
  <path d="M41 33h1v1h-1z"/>
  <path fill="#7900A4" d="M42 33h1v1h-1zm1 0h1v1h-1zm1 0h1v1h-1zm1 0h1v1h-1zm1 0h1v1h-1zm1 0h1v1h-1z"/>
  <path fill="#E2E2E2" d="M48 33h1v1h-1z"/>
  <path fill="#7900A4" d="M49 33h1v1h-1zm1 0h1v1h-1zm1 0h1v1h-1zm1 0h1v1h-1zm1 0h1v1h-1zm1 0h1v1h-1zm1 0h1v1h-1zm1 0h1v1h-1z"/>
  <path fill="#E2E2E2" d="M57 33h1v1h-1z"/>
  <path fill="#7900A4" d="M58 33h1v1h-1zm1 0h1v1h-1zm1 0h1v1h-1zm1 0h1v1h-1zm1 0h1v1h-1zm1 0h1v1h-1z"/>
  <path fill="#00D54D" d="M0 34h1v1H0zm1 0h1v1H1zm1 0h1v1H2zm1 0h1v1H3zm1 0h1v1H4zm1 0h1v1H5zm1 0h1v1H6z"/>
  <path fill="#E2E2E2" d="M7 34h1v1H7z"/>
  <path fill="#00D54D" d="M8 34h1v1H8zm1 0h1v1H9zm1 0h1v1h-1zm1 0h1v1h-1zm1 0h1v1h-1zm1 0h1v1h-1zm1 0h1v1h-1zm1 0h1v1h-1z"/>
  <path fill="#E2E2E2" d="M16 34h1v1h-1z"/>
  <path fill="#00D54D" d="M17 34h1v1h-1zm1 0h1v1h-1zm1 0h1v1h-1zm1 0h1v1h-1zm1 0h1v1h-1z"/>
  <path d="M22 34h1v1h-1z"/>
  <path fill="#E2E2E2" d="M23 34h1v1h-1z"/>
  <path fill="#00D54D" d="M24 34h1v1h-1zm1 0h1v1h-1z"/>
  <path d="M26 34h1v1h-1zm1 0h1v1h-1zm1 0h1v1h-1zm1 0h1v1h-1zm1 0h1v1h-1z"/>
  <path fill="gray" d="M31 34h1v1h-1zm1 0h1v1h-1z"/>
  <path d="M33 34h1v1h-1zm1 0h1v1h-1zm1 0h1v1h-1zm1 0h1v1h-1zm1 0h1v1h-1z"/>
  <path fill="#7900A4" d="M38 34h1v1h-1zm1 0h1v1h-1z"/>
  <path fill="#E2E2E2" d="M40 34h1v1h-1z"/>
  <path d="M41 34h1v1h-1z"/>
  <path fill="#7900A4" d="M42 34h1v1h-1zm1 0h1v1h-1zm1 0h1v1h-1zm1 0h1v1h-1zm1 0h1v1h-1z"/>
  <path fill="#E2E2E2" d="M47 34h1v1h-1z"/>
  <path fill="#7900A4" d="M48 34h1v1h-1zm1 0h1v1h-1zm1 0h1v1h-1zm1 0h1v1h-1zm1 0h1v1h-1zm1 0h1v1h-1zm1 0h1v1h-1zm1 0h1v1h-1z"/>
  <path fill="#E2E2E2" d="M56 34h1v1h-1z"/>
  <path fill="#7900A4" d="M57 34h1v1h-1zm1 0h1v1h-1zm1 0h1v1h-1zm1 0h1v1h-1zm1 0h1v1h-1zm1 0h1v1h-1zm1 0h1v1h-1z"/>
  <path fill="#00D54D" d="M0 35h1v1H0zm1 0h1v1H1zm1 0h1v1H2zm1 0h1v1H3zm1 0h1v1H4zm1 0h1v1H5zm1 0h1v1H6zm1 0h1v1H7z"/>
  <path fill="#E2E2E2" d="M8 35h1v1H8z"/>
  <path fill="#00D54D" d="M9 35h1v1H9zm1 0h1v1h-1zm1 0h1v1h-1zm1 0h1v1h-1zm1 0h1v1h-1zm1 0h1v1h-1zm1 0h1v1h-1zm1 0h1v1h-1z"/>
  <path fill="#E2E2E2" d="M17 35h1v1h-1z"/>
  <path fill="#00D54D" d="M18 35h1v1h-1zm1 0h1v1h-1zm1 0h1v1h-1zm1 0h1v1h-1zm1 0h1v1h-1zm1 0h1v1h-1z"/>
  <path d="M24 35h1v1h-1zm1 0h1v1h-1zm1 0h1v1h-1z"/>
  <path fill="#E2E2E2" d="M27 35h1v1h-1z"/>
  <path fill="#E1E1E1" d="M28 35h1v1h-1z"/>
  <path d="M29 35h1v1h-1zm1 0h1v1h-1zm1 0h1v1h-1zm1 0h1v1h-1zm1 0h1v1h-1zm1 0h1v1h-1z"/>
  <path fill="#D7D7D7" d="M35 35h1v1h-1z"/>
  <path fill="#E2E2E2" d="M36 35h1v1h-1z"/>
  <path d="M37 35h1v1h-1zm1 0h1v1h-1zm1 0h1v1h-1z"/>
  <path fill="#7900A4" d="M40 35h1v1h-1zm1 0h1v1h-1zm1 0h1v1h-1zm1 0h1v1h-1zm1 0h1v1h-1zm1 0h1v1h-1z"/>
  <path fill="#E2E2E2" d="M46 35h1v1h-1z"/>
  <path fill="#7900A4" d="M47 35h1v1h-1zm1 0h1v1h-1zm1 0h1v1h-1zm1 0h1v1h-1zm1 0h1v1h-1zm1 0h1v1h-1zm1 0h1v1h-1zm1 0h1v1h-1z"/>
  <path fill="#E2E2E2" d="M55 35h1v1h-1z"/>
  <path fill="#7900A4" d="M56 35h1v1h-1zm1 0h1v1h-1zm1 0h1v1h-1zm1 0h1v1h-1zm1 0h1v1h-1zm1 0h1v1h-1zm1 0h1v1h-1zm1 0h1v1h-1z"/>
  <path fill="#00D54D" d="M0 36h1v1H0zm1 0h1v1H1zm1 0h1v1H2zm1 0h1v1H3zm1 0h1v1H4zm1 0h1v1H5zm1 0h1v1H6zm1 0h1v1H7z"/>
  <path fill="#E2E2E2" d="M8 36h1v1H8z"/>
  <path fill="#00D54D" d="M9 36h1v1H9zm1 0h1v1h-1zm1 0h1v1h-1zm1 0h1v1h-1zm1 0h1v1h-1zm1 0h1v1h-1zm1 0h1v1h-1zm1 0h1v1h-1z"/>
  <path fill="#E2E2E2" d="M17 36h1v1h-1z"/>
  <path fill="#00D54D" d="M18 36h1v1h-1zm1 0h1v1h-1zm1 0h1v1h-1zm1 0h1v1h-1zm1 0h1v1h-1zm1 0h1v1h-1z"/>
  <path d="M24 36h1v1h-1z"/>
  <path fill="#00D54D" d="M25 36h1v1h-1z"/>
  <path fill="#E2E2E2" d="M26 36h1v1h-1zm1 0h1v1h-1z"/>
  <path d="M28 36h1v1h-1zm1 0h1v1h-1z"/>
  <path fill="gray" d="M30 36h1v1h-1zm1 0h1v1h-1zm1 0h1v1h-1zm1 0h1v1h-1z"/>
  <path d="M34 36h1v1h-1zm1 0h1v1h-1z"/>
  <path fill="#E2E2E2" d="M36 36h1v1h-1zm1 0h1v1h-1z"/>
  <path fill="#7900A4" d="M38 36h1v1h-1z"/>
  <path d="M39 36h1v1h-1z"/>
  <path fill="#7900A4" d="M40 36h1v1h-1zm1 0h1v1h-1zm1 0h1v1h-1zm1 0h1v1h-1zm1 0h1v1h-1zm1 0h1v1h-1z"/>
  <path fill="#E2E2E2" d="M46 36h1v1h-1z"/>
  <path fill="#7900A4" d="M47 36h1v1h-1zm1 0h1v1h-1zm1 0h1v1h-1zm1 0h1v1h-1zm1 0h1v1h-1zm1 0h1v1h-1zm1 0h1v1h-1zm1 0h1v1h-1z"/>
  <path fill="#E2E2E2" d="M55 36h1v1h-1z"/>
  <path fill="#7900A4" d="M56 36h1v1h-1zm1 0h1v1h-1zm1 0h1v1h-1zm1 0h1v1h-1zm1 0h1v1h-1zm1 0h1v1h-1zm1 0h1v1h-1zm1 0h1v1h-1z"/>
  <path fill="#00D54D" d="M0 37h1v1H0zm1 0h1v1H1zm1 0h1v1H2zm1 0h1v1H3zm1 0h1v1H4zm1 0h1v1H5zm1 0h1v1H6zm1 0h1v1H7zm1 0h1v1H8z"/>
  <path fill="#E2E2E2" d="M9 37h1v1H9z"/>
  <path fill="#00D54D" d="M10 37h1v1h-1zm1 0h1v1h-1zm1 0h1v1h-1zm1 0h1v1h-1zm1 0h1v1h-1zm1 0h1v1h-1zm1 0h1v1h-1zm1 0h1v1h-1z"/>
  <path fill="#E2E2E2" d="M18 37h1v1h-1z"/>
  <path fill="#00D54D" d="M19 37h1v1h-1zm1 0h1v1h-1zm1 0h1v1h-1zm1 0h1v1h-1z"/>
  <path fill="#E2E2E2" d="M23 37h1v1h-1z"/>
  <path d="M24 37h1v1h-1z"/>
  <path fill="#E2E2E2" d="M25 37h1v1h-1zm1 0h1v1h-1zm1 0h1v1h-1z"/>
  <path d="M28 37h1v1h-1z"/>
  <path fill="gray" d="M29 37h1v1h-1zm1 0h1v1h-1zm1 0h1v1h-1zm1 0h1v1h-1zm1 0h1v1h-1zm1 0h1v1h-1z"/>
  <path d="M35 37h1v1h-1z"/>
  <path fill="#E2E2E2" d="M36 37h1v1h-1zm1 0h1v1h-1zm1 0h1v1h-1z"/>
  <path d="M39 37h1v1h-1z"/>
  <path fill="#E2E2E2" d="M40 37h1v1h-1z"/>
  <path fill="#7900A4" d="M41 37h1v1h-1zm1 0h1v1h-1zm1 0h1v1h-1zm1 0h1v1h-1z"/>
  <path fill="#E2E2E2" d="M45 37h1v1h-1z"/>
  <path fill="#7900A4" d="M46 37h1v1h-1zm1 0h1v1h-1zm1 0h1v1h-1zm1 0h1v1h-1zm1 0h1v1h-1zm1 0h1v1h-1zm1 0h1v1h-1zm1 0h1v1h-1z"/>
  <path fill="#E2E2E2" d="M54 37h1v1h-1z"/>
  <path fill="#7900A4" d="M55 37h1v1h-1zm1 0h1v1h-1zm1 0h1v1h-1zm1 0h1v1h-1zm1 0h1v1h-1zm1 0h1v1h-1zm1 0h1v1h-1zm1 0h1v1h-1zm1 0h1v1h-1z"/>
  <path fill="#00D54D" d="M0 38h1v1H0zm1 0h1v1H1zm1 0h1v1H2zm1 0h1v1H3zm1 0h1v1H4zm1 0h1v1H5zm1 0h1v1H6zm1 0h1v1H7zm1 0h1v1H8z"/>
  <path fill="#E2E2E2" d="M9 38h1v1H9z"/>
  <path fill="#00D54D" d="M10 38h1v1h-1zm1 0h1v1h-1zm1 0h1v1h-1zm1 0h1v1h-1zm1 0h1v1h-1zm1 0h1v1h-1zm1 0h1v1h-1zm1 0h1v1h-1z"/>
  <path fill="#E2E2E2" d="M18 38h1v1h-1z"/>
  <path fill="#00D54D" d="M19 38h1v1h-1zm1 0h1v1h-1zm1 0h1v1h-1zm1 0h1v1h-1z"/>
  <path fill="#E2E2E2" d="M23 38h1v1h-1z"/>
  <path d="M24 38h1v1h-1z"/>
  <path fill="#E2E2E2" d="M25 38h1v1h-1zm1 0h1v1h-1z"/>
  <path fill="#7900A4" d="M27 38h1v1h-1z"/>
  <path d="M28 38h1v1h-1z"/>
  <path fill="gray" d="M29 38h1v1h-1zm1 0h1v1h-1zm1 0h1v1h-1zm1 0h1v1h-1zm1 0h1v1h-1zm1 0h1v1h-1z"/>
  <path d="M35 38h1v1h-1z"/>
  <path fill="#7900A4" d="M36 38h1v1h-1z"/>
  <path fill="#E2E2E2" d="M37 38h1v1h-1zm1 0h1v1h-1z"/>
  <path d="M39 38h1v1h-1z"/>
  <path fill="#E2E2E2" d="M40 38h1v1h-1z"/>
  <path fill="#7900A4" d="M41 38h1v1h-1zm1 0h1v1h-1zm1 0h1v1h-1zm1 0h1v1h-1z"/>
  <path fill="#E2E2E2" d="M45 38h1v1h-1z"/>
  <path fill="#7900A4" d="M46 38h1v1h-1zm1 0h1v1h-1zm1 0h1v1h-1zm1 0h1v1h-1zm1 0h1v1h-1zm1 0h1v1h-1zm1 0h1v1h-1zm1 0h1v1h-1z"/>
  <path fill="#E2E2E2" d="M54 38h1v1h-1z"/>
  <path fill="#7900A4" d="M55 38h1v1h-1zm1 0h1v1h-1zm1 0h1v1h-1zm1 0h1v1h-1zm1 0h1v1h-1zm1 0h1v1h-1zm1 0h1v1h-1zm1 0h1v1h-1zm1 0h1v1h-1z"/>
  <path fill="#00D54D" d="M0 39h1v1H0zm1 0h1v1H1zm1 0h1v1H2zm1 0h1v1H3zm1 0h1v1H4zm1 0h1v1H5zm1 0h1v1H6zm1 0h1v1H7zm1 0h1v1H8zm1 0h1v1H9z"/>
  <path fill="#E2E2E2" d="M10 39h1v1h-1z"/>
  <path fill="#00D54D" d="M11 39h1v1h-1zm1 0h1v1h-1zm1 0h1v1h-1zm1 0h1v1h-1zm1 0h1v1h-1zm1 0h1v1h-1zm1 0h1v1h-1zm1 0h1v1h-1z"/>
  <path fill="#E2E2E2" d="M19 39h1v1h-1z"/>
  <path fill="#00D54D" d="M20 39h1v1h-1zm1 0h1v1h-1zm1 0h1v1h-1z"/>
  <path fill="#E2E2E2" d="M23 39h1v1h-1z"/>
  <path d="M24 39h1v1h-1z"/>
  <path fill="#E2E2E2" d="M25 39h1v1h-1z"/>
  <path fill="#7900A4" d="M26 39h1v1h-1z"/>
  <path fill="#E2E2E2" d="M27 39h1v1h-1z"/>
  <path d="M28 39h1v1h-1zm1 0h1v1h-1z"/>
  <path fill="gray" d="M30 39h1v1h-1zm1 0h1v1h-1zm1 0h1v1h-1zm1 0h1v1h-1z"/>
  <path d="M34 39h1v1h-1zm1 0h1v1h-1z"/>
  <path fill="#E2E2E2" d="M36 39h1v1h-1z"/>
  <path fill="#7900A4" d="M37 39h1v1h-1z"/>
  <path fill="#E2E2E2" d="M38 39h1v1h-1z"/>
  <path d="M39 39h1v1h-1z"/>
  <path fill="#E2E2E2" d="M40 39h1v1h-1z"/>
  <path fill="#7900A4" d="M41 39h1v1h-1zm1 0h1v1h-1zm1 0h1v1h-1z"/>
  <path fill="#E2E2E2" d="M44 39h1v1h-1z"/>
  <path fill="#7900A4" d="M45 39h1v1h-1zm1 0h1v1h-1zm1 0h1v1h-1zm1 0h1v1h-1zm1 0h1v1h-1zm1 0h1v1h-1zm1 0h1v1h-1zm1 0h1v1h-1z"/>
  <path fill="#E2E2E2" d="M53 39h1v1h-1z"/>
  <path fill="#7900A4" d="M54 39h1v1h-1zm1 0h1v1h-1zm1 0h1v1h-1zm1 0h1v1h-1zm1 0h1v1h-1zm1 0h1v1h-1zm1 0h1v1h-1zm1 0h1v1h-1zm1 0h1v1h-1zm1 0h1v1h-1z"/>
  <path fill="#00D54D" d="M0 40h1v1H0zm1 0h1v1H1zm1 0h1v1H2zm1 0h1v1H3zm1 0h1v1H4zm1 0h1v1H5zm1 0h1v1H6zm1 0h1v1H7zm1 0h1v1H8zm1 0h1v1H9z"/>
  <path fill="#E2E2E2" d="M10 40h1v1h-1z"/>
  <path fill="#00D54D" d="M11 40h1v1h-1zm1 0h1v1h-1zm1 0h1v1h-1zm1 0h1v1h-1zm1 0h1v1h-1zm1 0h1v1h-1zm1 0h1v1h-1z"/>
  <path fill="#E2E2E2" d="M18 40h1v1h-1z"/>
  <path fill="#00D54D" d="M19 40h1v1h-1zm1 0h1v1h-1zm1 0h1v1h-1z"/>
  <path fill="#E2E2E2" d="M22 40h1v1h-1zm1 0h1v1h-1zm1 0h1v1h-1zm1 0h1v1h-1zm1 0h1v1h-1z"/>
  <path fill="#7900A4" d="M27 40h1v1h-1zm1 0h1v1h-1z"/>
  <path d="M29 40h1v1h-1zm1 0h1v1h-1z"/>
  <path fill="gray" d="M31 40h1v1h-1zm1 0h1v1h-1z"/>
  <path d="M33 40h1v1h-1zm1 0h1v1h-1z"/>
  <path fill="#7900A4" d="M35 40h1v1h-1zm1 0h1v1h-1z"/>
  <path fill="#E2E2E2" d="M37 40h1v1h-1zm1 0h1v1h-1zm1 0h1v1h-1zm1 0h1v1h-1zm1 0h1v1h-1z"/>
  <path fill="#7900A4" d="M42 40h1v1h-1zm1 0h1v1h-1zm1 0h1v1h-1z"/>
  <path fill="#E2E2E2" d="M45 40h1v1h-1z"/>
  <path fill="#7900A4" d="M46 40h1v1h-1zm1 0h1v1h-1zm1 0h1v1h-1zm1 0h1v1h-1zm1 0h1v1h-1zm1 0h1v1h-1zm1 0h1v1h-1z"/>
  <path fill="#E2E2E2" d="M53 40h1v1h-1z"/>
  <path fill="#7900A4" d="M54 40h1v1h-1zm1 0h1v1h-1zm1 0h1v1h-1zm1 0h1v1h-1zm1 0h1v1h-1zm1 0h1v1h-1zm1 0h1v1h-1zm1 0h1v1h-1zm1 0h1v1h-1zm1 0h1v1h-1z"/>
  <path fill="#00D54D" d="M0 41h1v1H0zm1 0h1v1H1zm1 0h1v1H2zm1 0h1v1H3zm1 0h1v1H4zm1 0h1v1H5zm1 0h1v1H6zm1 0h1v1H7zm1 0h1v1H8zm1 0h1v1H9zm1 0h1v1h-1z"/>
  <path fill="#E2E2E2" d="M11 41h1v1h-1z"/>
  <path fill="#00D54D" d="M12 41h1v1h-1zm1 0h1v1h-1zm1 0h1v1h-1zm1 0h1v1h-1zm1 0h1v1h-1zm1 0h1v1h-1z"/>
  <path fill="#E2E2E2" d="M18 41h1v1h-1z"/>
  <path fill="#00D54D" d="M19 41h1v1h-1zm1 0h1v1h-1z"/>
  <path fill="#E2E2E2" d="M21 41h1v1h-1zm1 0h1v1h-1zm1 0h1v1h-1z"/>
  <path fill="#7900A4" d="M24 41h1v1h-1zm1 0h1v1h-1zm1 0h1v1h-1zm1 0h1v1h-1zm1 0h1v1h-1zm1 0h1v1h-1z"/>
  <path d="M30 41h1v1h-1zm1 0h1v1h-1zm1 0h1v1h-1zm1 0h1v1h-1z"/>
  <path fill="#7900A4" d="M34 41h1v1h-1zm1 0h1v1h-1zm1 0h1v1h-1zm1 0h1v1h-1zm1 0h1v1h-1zm1 0h1v1h-1z"/>
  <path fill="#E2E2E2" d="M40 41h1v1h-1zm1 0h1v1h-1zm1 0h1v1h-1z"/>
  <path fill="#7900A4" d="M43 41h1v1h-1zm1 0h1v1h-1z"/>
  <path fill="#E2E2E2" d="M45 41h1v1h-1z"/>
  <path fill="#7900A4" d="M46 41h1v1h-1zm1 0h1v1h-1zm1 0h1v1h-1zm1 0h1v1h-1zm1 0h1v1h-1zm1 0h1v1h-1z"/>
  <path fill="#E2E2E2" d="M52 41h1v1h-1z"/>
  <path fill="#7900A4" d="M53 41h1v1h-1zm1 0h1v1h-1zm1 0h1v1h-1zm1 0h1v1h-1zm1 0h1v1h-1zm1 0h1v1h-1zm1 0h1v1h-1zm1 0h1v1h-1zm1 0h1v1h-1zm1 0h1v1h-1zm1 0h1v1h-1z"/>
  <path fill="#00D54D" d="M0 42h1v1H0zm1 0h1v1H1zm1 0h1v1H2zm1 0h1v1H3zm1 0h1v1H4zm1 0h1v1H5zm1 0h1v1H6zm1 0h1v1H7zm1 0h1v1H8zm1 0h1v1H9zm1 0h1v1h-1z"/>
  <path fill="#E2E2E2" d="M11 42h1v1h-1z"/>
  <path fill="#00D54D" d="M12 42h1v1h-1zm1 0h1v1h-1zm1 0h1v1h-1zm1 0h1v1h-1zm1 0h1v1h-1z"/>
  <path fill="#E2E2E2" d="M17 42h1v1h-1z"/>
  <path fill="#00D54D" d="M18 42h1v1h-1zm1 0h1v1h-1z"/>
  <path fill="#E2E2E2" d="M20 42h1v1h-1zm1 0h1v1h-1zm1 0h1v1h-1z"/>
  <path fill="#7900A4" d="M23 42h1v1h-1zm1 0h1v1h-1zm1 0h1v1h-1zm1 0h1v1h-1zm1 0h1v1h-1zm1 0h1v1h-1zm1 0h1v1h-1zm1 0h1v1h-1z"/>
  <path fill="#E2E2E2" d="M31 42h1v1h-1zm1 0h1v1h-1z"/>
  <path fill="#7900A4" d="M33 42h1v1h-1zm1 0h1v1h-1zm1 0h1v1h-1zm1 0h1v1h-1zm1 0h1v1h-1zm1 0h1v1h-1zm1 0h1v1h-1zm1 0h1v1h-1z"/>
  <path fill="#E2E2E2" d="M41 42h1v1h-1zm1 0h1v1h-1zm1 0h1v1h-1z"/>
  <path fill="#7900A4" d="M44 42h1v1h-1zm1 0h1v1h-1z"/>
  <path fill="#E2E2E2" d="M46 42h1v1h-1z"/>
  <path fill="#7900A4" d="M47 42h1v1h-1zm1 0h1v1h-1zm1 0h1v1h-1zm1 0h1v1h-1zm1 0h1v1h-1z"/>
  <path fill="#E2E2E2" d="M52 42h1v1h-1z"/>
  <path fill="#7900A4" d="M53 42h1v1h-1zm1 0h1v1h-1zm1 0h1v1h-1zm1 0h1v1h-1zm1 0h1v1h-1zm1 0h1v1h-1zm1 0h1v1h-1zm1 0h1v1h-1zm1 0h1v1h-1zm1 0h1v1h-1zm1 0h1v1h-1z"/>
  <path fill="#00D54D" d="M0 43h1v1H0zm1 0h1v1H1zm1 0h1v1H2zm1 0h1v1H3zm1 0h1v1H4zm1 0h1v1H5zm1 0h1v1H6zm1 0h1v1H7zm1 0h1v1H8zm1 0h1v1H9zm1 0h1v1h-1zm1 0h1v1h-1z"/>
  <path fill="#E2E2E2" d="M12 43h1v1h-1z"/>
  <path fill="#00D54D" d="M13 43h1v1h-1zm1 0h1v1h-1zm1 0h1v1h-1zm1 0h1v1h-1z"/>
  <path fill="#E2E2E2" d="M17 43h1v1h-1z"/>
  <path fill="#00D54D" d="M18 43h1v1h-1z"/>
  <path fill="#E2E2E2" d="M19 43h1v1h-1zm1 0h1v1h-1zm1 0h1v1h-1z"/>
  <path fill="#7900A4" d="M22 43h1v1h-1zm1 0h1v1h-1zm1 0h1v1h-1zm1 0h1v1h-1zm1 0h1v1h-1zm1 0h1v1h-1zm1 0h1v1h-1zm1 0h1v1h-1zm1 0h1v1h-1z"/>
  <path fill="#E2E2E2" d="M31 43h1v1h-1zm1 0h1v1h-1z"/>
  <path fill="#7900A4" d="M33 43h1v1h-1zm1 0h1v1h-1zm1 0h1v1h-1zm1 0h1v1h-1zm1 0h1v1h-1zm1 0h1v1h-1zm1 0h1v1h-1zm1 0h1v1h-1zm1 0h1v1h-1z"/>
  <path fill="#E2E2E2" d="M42 43h1v1h-1zm1 0h1v1h-1zm1 0h1v1h-1z"/>
  <path fill="#7900A4" d="M45 43h1v1h-1z"/>
  <path fill="#E2E2E2" d="M46 43h1v1h-1z"/>
  <path fill="#7900A4" d="M47 43h1v1h-1zm1 0h1v1h-1zm1 0h1v1h-1zm1 0h1v1h-1z"/>
  <path fill="#E2E2E2" d="M51 43h1v1h-1z"/>
  <path fill="#7900A4" d="M52 43h1v1h-1zm1 0h1v1h-1zm1 0h1v1h-1zm1 0h1v1h-1zm1 0h1v1h-1zm1 0h1v1h-1zm1 0h1v1h-1zm1 0h1v1h-1zm1 0h1v1h-1zm1 0h1v1h-1zm1 0h1v1h-1zm1 0h1v1h-1z"/>
  <path fill="#00D54D" d="M0 44h1v1H0zm1 0h1v1H1zm1 0h1v1H2zm1 0h1v1H3zm1 0h1v1H4zm1 0h1v1H5zm1 0h1v1H6zm1 0h1v1H7zm1 0h1v1H8zm1 0h1v1H9zm1 0h1v1h-1zm1 0h1v1h-1z"/>
  <path fill="#E2E2E2" d="M12 44h1v1h-1z"/>
  <path fill="#00D54D" d="M13 44h1v1h-1zm1 0h1v1h-1zm1 0h1v1h-1z"/>
  <path fill="#E2E2E2" d="M16 44h1v1h-1z"/>
  <path fill="#00D54D" d="M17 44h1v1h-1z"/>
  <path fill="#E2E2E2" d="M18 44h1v1h-1zm1 0h1v1h-1zm1 0h1v1h-1z"/>
  <path fill="#7900A4" d="M21 44h1v1h-1zm1 0h1v1h-1zm1 0h1v1h-1z"/>
  <path fill="#E2E2E2" d="M24 44h1v1h-1z"/>
  <path fill="#7900A4" d="M25 44h1v1h-1zm1 0h1v1h-1zm1 0h1v1h-1zm1 0h1v1h-1zm1 0h1v1h-1zm1 0h1v1h-1z"/>
  <path fill="#E2E2E2" d="M31 44h1v1h-1zm1 0h1v1h-1z"/>
  <path fill="#7900A4" d="M33 44h1v1h-1zm1 0h1v1h-1zm1 0h1v1h-1zm1 0h1v1h-1zm1 0h1v1h-1zm1 0h1v1h-1z"/>
  <path fill="#E2E2E2" d="M39 44h1v1h-1z"/>
  <path fill="#7900A4" d="M40 44h1v1h-1zm1 0h1v1h-1zm1 0h1v1h-1z"/>
  <path fill="#E2E2E2" d="M43 44h1v1h-1zm1 0h1v1h-1zm1 0h1v1h-1z"/>
  <path fill="#7900A4" d="M46 44h1v1h-1z"/>
  <path fill="#E2E2E2" d="M47 44h1v1h-1z"/>
  <path fill="#7900A4" d="M48 44h1v1h-1zm1 0h1v1h-1zm1 0h1v1h-1z"/>
  <path fill="#E2E2E2" d="M51 44h1v1h-1z"/>
  <path fill="#7900A4" d="M52 44h1v1h-1zm1 0h1v1h-1zm1 0h1v1h-1zm1 0h1v1h-1zm1 0h1v1h-1zm1 0h1v1h-1zm1 0h1v1h-1zm1 0h1v1h-1zm1 0h1v1h-1zm1 0h1v1h-1zm1 0h1v1h-1zm1 0h1v1h-1z"/>
  <path fill="#00D54D" d="M0 45h1v1H0zm1 0h1v1H1zm1 0h1v1H2zm1 0h1v1H3zm1 0h1v1H4zm1 0h1v1H5zm1 0h1v1H6zm1 0h1v1H7zm1 0h1v1H8zm1 0h1v1H9zm1 0h1v1h-1z"/>
  <path fill="#E2E2E2" d="M11 45h1v1h-1z"/>
  <path fill="#00D54D" d="M12 45h1v1h-1zm1 0h1v1h-1zm1 0h1v1h-1zm1 0h1v1h-1z"/>
  <path fill="#E2E2E2" d="M16 45h1v1h-1zm1 0h1v1h-1zm1 0h1v1h-1zm1 0h1v1h-1z"/>
  <path fill="#7900A4" d="M20 45h1v1h-1zm1 0h1v1h-1z"/>
  <path fill="#E2E2E2" d="M22 45h1v1h-1zm1 0h1v1h-1z"/>
  <path fill="#7900A4" d="M24 45h1v1h-1z"/>
  <path fill="#E2E2E2" d="M25 45h1v1h-1zm1 0h1v1h-1z"/>
  <path fill="#7900A4" d="M27 45h1v1h-1zm1 0h1v1h-1zm1 0h1v1h-1zm1 0h1v1h-1z"/>
  <path fill="#E2E2E2" d="M31 45h1v1h-1zm1 0h1v1h-1z"/>
  <path fill="#7900A4" d="M33 45h1v1h-1zm1 0h1v1h-1zm1 0h1v1h-1zm1 0h1v1h-1z"/>
  <path fill="#E2E2E2" d="M37 45h1v1h-1zm1 0h1v1h-1z"/>
  <path fill="#7900A4" d="M39 45h1v1h-1z"/>
  <path fill="#E2E2E2" d="M40 45h1v1h-1zm1 0h1v1h-1z"/>
  <path fill="#7900A4" d="M42 45h1v1h-1zm1 0h1v1h-1z"/>
  <path fill="#E2E2E2" d="M44 45h1v1h-1zm1 0h1v1h-1zm1 0h1v1h-1zm1 0h1v1h-1z"/>
  <path fill="#7900A4" d="M48 45h1v1h-1zm1 0h1v1h-1zm1 0h1v1h-1zm1 0h1v1h-1z"/>
  <path fill="#E2E2E2" d="M52 45h1v1h-1z"/>
  <path fill="#7900A4" d="M53 45h1v1h-1zm1 0h1v1h-1zm1 0h1v1h-1zm1 0h1v1h-1zm1 0h1v1h-1zm1 0h1v1h-1zm1 0h1v1h-1zm1 0h1v1h-1zm1 0h1v1h-1zm1 0h1v1h-1zm1 0h1v1h-1z"/>
  <path fill="#00D54D" d="M0 46h1v1H0zm1 0h1v1H1zm1 0h1v1H2zm1 0h1v1H3zm1 0h1v1H4zm1 0h1v1H5zm1 0h1v1H6zm1 0h1v1H7zm1 0h1v1H8zm1 0h1v1H9zm1 0h1v1h-1z"/>
  <path fill="#E2E2E2" d="M11 46h1v1h-1z"/>
  <path fill="#00D54D" d="M12 46h1v1h-1zm1 0h1v1h-1zm1 0h1v1h-1zm1 0h1v1h-1z"/>
  <path fill="#E2E2E2" d="M16 46h1v1h-1zm1 0h1v1h-1zm1 0h1v1h-1z"/>
  <path fill="#7900A4" d="M19 46h1v1h-1z"/>
  <path fill="#E2E2E2" d="M20 46h1v1h-1zm1 0h1v1h-1z"/>
  <path fill="#7900A4" d="M22 46h1v1h-1zm1 0h1v1h-1zm1 0h1v1h-1zm1 0h1v1h-1zm1 0h1v1h-1z"/>
  <path fill="#E2E2E2" d="M27 46h1v1h-1zm1 0h1v1h-1z"/>
  <path fill="#7900A4" d="M29 46h1v1h-1zm1 0h1v1h-1z"/>
  <path fill="#E2E2E2" d="M31 46h1v1h-1zm1 0h1v1h-1z"/>
  <path fill="#7900A4" d="M33 46h1v1h-1zm1 0h1v1h-1z"/>
  <path fill="#E2E2E2" d="M35 46h1v1h-1zm1 0h1v1h-1z"/>
  <path fill="#7900A4" d="M37 46h1v1h-1zm1 0h1v1h-1zm1 0h1v1h-1zm1 0h1v1h-1zm1 0h1v1h-1z"/>
  <path fill="#E2E2E2" d="M42 46h1v1h-1zm1 0h1v1h-1z"/>
  <path fill="#7900A4" d="M44 46h1v1h-1z"/>
  <path fill="#E2E2E2" d="M45 46h1v1h-1zm1 0h1v1h-1zm1 0h1v1h-1z"/>
  <path fill="#7900A4" d="M48 46h1v1h-1zm1 0h1v1h-1zm1 0h1v1h-1zm1 0h1v1h-1z"/>
  <path fill="#E2E2E2" d="M52 46h1v1h-1z"/>
  <path fill="#7900A4" d="M53 46h1v1h-1zm1 0h1v1h-1zm1 0h1v1h-1zm1 0h1v1h-1zm1 0h1v1h-1zm1 0h1v1h-1zm1 0h1v1h-1zm1 0h1v1h-1zm1 0h1v1h-1zm1 0h1v1h-1zm1 0h1v1h-1z"/>
  <path fill="#00D54D" d="M0 47h1v1H0zm1 0h1v1H1zm1 0h1v1H2zm1 0h1v1H3zm1 0h1v1H4zm1 0h1v1H5zm1 0h1v1H6zm1 0h1v1H7zm1 0h1v1H8zm1 0h1v1H9z"/>
  <path fill="#E2E2E2" d="M10 47h1v1h-1z"/>
  <path fill="#00D54D" d="M11 47h1v1h-1zm1 0h1v1h-1zm1 0h1v1h-1zm1 0h1v1h-1z"/>
  <path fill="#E2E2E2" d="M15 47h1v1h-1zm1 0h1v1h-1zm1 0h1v1h-1zm1 0h1v1h-1zm1 0h1v1h-1z"/>
  <path fill="#7900A4" d="M20 47h1v1h-1zm1 0h1v1h-1zm1 0h1v1h-1zm1 0h1v1h-1zm1 0h1v1h-1zm1 0h1v1h-1zm1 0h1v1h-1zm1 0h1v1h-1zm1 0h1v1h-1z"/>
  <path fill="#E2E2E2" d="M29 47h1v1h-1z"/>
  <path fill="#7900A4" d="M30 47h1v1h-1z"/>
  <path fill="#E2E2E2" d="M31 47h1v1h-1zm1 0h1v1h-1z"/>
  <path fill="#7900A4" d="M33 47h1v1h-1z"/>
  <path fill="#E2E2E2" d="M34 47h1v1h-1z"/>
  <path fill="#7900A4" d="M35 47h1v1h-1zm1 0h1v1h-1zm1 0h1v1h-1zm1 0h1v1h-1zm1 0h1v1h-1zm1 0h1v1h-1zm1 0h1v1h-1zm1 0h1v1h-1zm1 0h1v1h-1z"/>
  <path fill="#E2E2E2" d="M44 47h1v1h-1zm1 0h1v1h-1zm1 0h1v1h-1zm1 0h1v1h-1zm1 0h1v1h-1z"/>
  <path fill="#7900A4" d="M49 47h1v1h-1zm1 0h1v1h-1zm1 0h1v1h-1zm1 0h1v1h-1z"/>
  <path fill="#E2E2E2" d="M53 47h1v1h-1z"/>
  <path fill="#7900A4" d="M54 47h1v1h-1zm1 0h1v1h-1zm1 0h1v1h-1zm1 0h1v1h-1zm1 0h1v1h-1zm1 0h1v1h-1zm1 0h1v1h-1zm1 0h1v1h-1zm1 0h1v1h-1zm1 0h1v1h-1z"/>
  <path fill="#00D54D" d="M0 48h1v1H0zm1 0h1v1H1zm1 0h1v1H2zm1 0h1v1H3zm1 0h1v1H4zm1 0h1v1H5zm1 0h1v1H6zm1 0h1v1H7zm1 0h1v1H8zm1 0h1v1H9z"/>
  <path fill="#E2E2E2" d="M10 48h1v1h-1z"/>
  <path fill="#00D54D" d="M11 48h1v1h-1zm1 0h1v1h-1zm1 0h1v1h-1z"/>
  <path fill="#E2E2E2" d="M14 48h1v1h-1zm1 0h1v1h-1zm1 0h1v1h-1z"/>
  <path fill="#7900A4" d="M17 48h1v1h-1zm1 0h1v1h-1zm1 0h1v1h-1zm1 0h1v1h-1zm1 0h1v1h-1zm1 0h1v1h-1zm1 0h1v1h-1zm1 0h1v1h-1zm1 0h1v1h-1zm1 0h1v1h-1zm1 0h1v1h-1zm1 0h1v1h-1zm1 0h1v1h-1z"/>
  <path fill="#E2E2E2" d="M30 48h1v1h-1zm1 0h1v1h-1zm1 0h1v1h-1zm1 0h1v1h-1z"/>
  <path fill="#7900A4" d="M34 48h1v1h-1zm1 0h1v1h-1zm1 0h1v1h-1zm1 0h1v1h-1zm1 0h1v1h-1zm1 0h1v1h-1zm1 0h1v1h-1zm1 0h1v1h-1zm1 0h1v1h-1zm1 0h1v1h-1zm1 0h1v1h-1zm1 0h1v1h-1zm1 0h1v1h-1z"/>
  <path fill="#E2E2E2" d="M47 48h1v1h-1zm1 0h1v1h-1zm1 0h1v1h-1z"/>
  <path fill="#7900A4" d="M50 48h1v1h-1zm1 0h1v1h-1zm1 0h1v1h-1z"/>
  <path fill="#E2E2E2" d="M53 48h1v1h-1z"/>
  <path fill="#7900A4" d="M54 48h1v1h-1zm1 0h1v1h-1zm1 0h1v1h-1zm1 0h1v1h-1zm1 0h1v1h-1zm1 0h1v1h-1zm1 0h1v1h-1zm1 0h1v1h-1zm1 0h1v1h-1zm1 0h1v1h-1z"/>
  <path fill="#00D54D" d="M0 49h1v1H0zm1 0h1v1H1zm1 0h1v1H2zm1 0h1v1H3zm1 0h1v1H4zm1 0h1v1H5zm1 0h1v1H6zm1 0h1v1H7zm1 0h1v1H8z"/>
  <path fill="#E2E2E2" d="M9 49h1v1H9z"/>
  <path fill="#00D54D" d="M10 49h1v1h-1zm1 0h1v1h-1zm1 0h1v1h-1z"/>
  <path fill="#E2E2E2" d="M13 49h1v1h-1zm1 0h1v1h-1zm1 0h1v1h-1z"/>
  <path fill="#7900A4" d="M16 49h1v1h-1zm1 0h1v1h-1zm1 0h1v1h-1zm1 0h1v1h-1zm1 0h1v1h-1zm1 0h1v1h-1zm1 0h1v1h-1zm1 0h1v1h-1zm1 0h1v1h-1zm1 0h1v1h-1zm1 0h1v1h-1zm1 0h1v1h-1zm1 0h1v1h-1zm1 0h1v1h-1zm1 0h1v1h-1z"/>
  <path fill="#E2E2E2" d="M31 49h1v1h-1zm1 0h1v1h-1z"/>
  <path fill="#7900A4" d="M33 49h1v1h-1zm1 0h1v1h-1zm1 0h1v1h-1zm1 0h1v1h-1zm1 0h1v1h-1zm1 0h1v1h-1zm1 0h1v1h-1zm1 0h1v1h-1zm1 0h1v1h-1zm1 0h1v1h-1zm1 0h1v1h-1zm1 0h1v1h-1zm1 0h1v1h-1zm1 0h1v1h-1zm1 0h1v1h-1z"/>
  <path fill="#E2E2E2" d="M48 49h1v1h-1zm1 0h1v1h-1zm1 0h1v1h-1z"/>
  <path fill="#7900A4" d="M51 49h1v1h-1zm1 0h1v1h-1zm1 0h1v1h-1z"/>
  <path fill="#E2E2E2" d="M54 49h1v1h-1z"/>
  <path fill="#7900A4" d="M55 49h1v1h-1zm1 0h1v1h-1zm1 0h1v1h-1zm1 0h1v1h-1zm1 0h1v1h-1zm1 0h1v1h-1zm1 0h1v1h-1zm1 0h1v1h-1zm1 0h1v1h-1z"/>
  <path fill="#00D54D" d="M0 50h1v1H0zm1 0h1v1H1zm1 0h1v1H2zm1 0h1v1H3zm1 0h1v1H4zm1 0h1v1H5zm1 0h1v1H6zm1 0h1v1H7zm1 0h1v1H8z"/>
  <path fill="#E2E2E2" d="M9 50h1v1H9z"/>
  <path fill="#00D54D" d="M10 50h1v1h-1zm1 0h1v1h-1z"/>
  <path fill="#E2E2E2" d="M12 50h1v1h-1zm1 0h1v1h-1zm1 0h1v1h-1z"/>
  <path fill="#7900A4" d="M15 50h1v1h-1zm1 0h1v1h-1zm1 0h1v1h-1zm1 0h1v1h-1zm1 0h1v1h-1zm1 0h1v1h-1zm1 0h1v1h-1zm1 0h1v1h-1zm1 0h1v1h-1zm1 0h1v1h-1zm1 0h1v1h-1zm1 0h1v1h-1zm1 0h1v1h-1zm1 0h1v1h-1zm1 0h1v1h-1zm1 0h1v1h-1z"/>
  <path fill="#E2E2E2" d="M31 50h1v1h-1zm1 0h1v1h-1z"/>
  <path fill="#7900A4" d="M33 50h1v1h-1zm1 0h1v1h-1zm1 0h1v1h-1zm1 0h1v1h-1zm1 0h1v1h-1zm1 0h1v1h-1zm1 0h1v1h-1zm1 0h1v1h-1zm1 0h1v1h-1zm1 0h1v1h-1zm1 0h1v1h-1zm1 0h1v1h-1zm1 0h1v1h-1zm1 0h1v1h-1zm1 0h1v1h-1zm1 0h1v1h-1z"/>
  <path fill="#E2E2E2" d="M49 50h1v1h-1zm1 0h1v1h-1zm1 0h1v1h-1z"/>
  <path fill="#7900A4" d="M52 50h1v1h-1zm1 0h1v1h-1z"/>
  <path fill="#E2E2E2" d="M54 50h1v1h-1z"/>
  <path fill="#7900A4" d="M55 50h1v1h-1zm1 0h1v1h-1zm1 0h1v1h-1zm1 0h1v1h-1zm1 0h1v1h-1zm1 0h1v1h-1zm1 0h1v1h-1zm1 0h1v1h-1zm1 0h1v1h-1z"/>
  <path fill="#00D54D" d="M0 51h1v1H0zm1 0h1v1H1zm1 0h1v1H2zm1 0h1v1H3zm1 0h1v1H4zm1 0h1v1H5zm1 0h1v1H6zm1 0h1v1H7z"/>
  <path fill="#E2E2E2" d="M8 51h1v1H8z"/>
  <path fill="#00D54D" d="M9 51h1v1H9zm1 0h1v1h-1z"/>
  <path fill="#E2E2E2" d="M11 51h1v1h-1zm1 0h1v1h-1zm1 0h1v1h-1z"/>
  <path fill="#7900A4" d="M14 51h1v1h-1zm1 0h1v1h-1zm1 0h1v1h-1zm1 0h1v1h-1zm1 0h1v1h-1z"/>
  <path fill="#E2E2E2" d="M19 51h1v1h-1zm1 0h1v1h-1z"/>
  <path fill="#7900A4" d="M21 51h1v1h-1zm1 0h1v1h-1zm1 0h1v1h-1zm1 0h1v1h-1zm1 0h1v1h-1zm1 0h1v1h-1zm1 0h1v1h-1zm1 0h1v1h-1zm1 0h1v1h-1zm1 0h1v1h-1z"/>
  <path fill="#E2E2E2" d="M31 51h1v1h-1zm1 0h1v1h-1z"/>
  <path fill="#7900A4" d="M33 51h1v1h-1zm1 0h1v1h-1zm1 0h1v1h-1zm1 0h1v1h-1zm1 0h1v1h-1zm1 0h1v1h-1zm1 0h1v1h-1zm1 0h1v1h-1zm1 0h1v1h-1zm1 0h1v1h-1z"/>
  <path fill="#E2E2E2" d="M43 51h1v1h-1zm1 0h1v1h-1z"/>
  <path fill="#7900A4" d="M45 51h1v1h-1zm1 0h1v1h-1zm1 0h1v1h-1zm1 0h1v1h-1zm1 0h1v1h-1z"/>
  <path fill="#E2E2E2" d="M50 51h1v1h-1zm1 0h1v1h-1zm1 0h1v1h-1z"/>
  <path fill="#7900A4" d="M53 51h1v1h-1zm1 0h1v1h-1z"/>
  <path fill="#E2E2E2" d="M55 51h1v1h-1z"/>
  <path fill="#7900A4" d="M56 51h1v1h-1zm1 0h1v1h-1zm1 0h1v1h-1zm1 0h1v1h-1zm1 0h1v1h-1zm1 0h1v1h-1zm1 0h1v1h-1zm1 0h1v1h-1z"/>
  <path fill="#00D54D" d="M0 52h1v1H0zm1 0h1v1H1zm1 0h1v1H2zm1 0h1v1H3zm1 0h1v1H4zm1 0h1v1H5zm1 0h1v1H6zm1 0h1v1H7z"/>
  <path fill="#E2E2E2" d="M8 52h1v1H8z"/>
  <path fill="#00D54D" d="M9 52h1v1H9z"/>
  <path fill="#E2E2E2" d="M10 52h1v1h-1zm1 0h1v1h-1zm1 0h1v1h-1z"/>
  <path fill="#7900A4" d="M13 52h1v1h-1zm1 0h1v1h-1zm1 0h1v1h-1zm1 0h1v1h-1z"/>
  <path fill="#E2E2E2" d="M17 52h1v1h-1zm1 0h1v1h-1z"/>
  <path fill="#7900A4" d="M19 52h1v1h-1zm1 0h1v1h-1z"/>
  <path fill="#E2E2E2" d="M21 52h1v1h-1zm1 0h1v1h-1z"/>
  <path fill="#7900A4" d="M23 52h1v1h-1zm1 0h1v1h-1zm1 0h1v1h-1zm1 0h1v1h-1zm1 0h1v1h-1zm1 0h1v1h-1zm1 0h1v1h-1zm1 0h1v1h-1z"/>
  <path fill="#E2E2E2" d="M31 52h1v1h-1zm1 0h1v1h-1z"/>
  <path fill="#7900A4" d="M33 52h1v1h-1zm1 0h1v1h-1zm1 0h1v1h-1zm1 0h1v1h-1zm1 0h1v1h-1zm1 0h1v1h-1zm1 0h1v1h-1zm1 0h1v1h-1z"/>
  <path fill="#E2E2E2" d="M41 52h1v1h-1zm1 0h1v1h-1z"/>
  <path fill="#7900A4" d="M43 52h1v1h-1zm1 0h1v1h-1z"/>
  <path fill="#E2E2E2" d="M45 52h1v1h-1zm1 0h1v1h-1z"/>
  <path fill="#7900A4" d="M47 52h1v1h-1zm1 0h1v1h-1zm1 0h1v1h-1zm1 0h1v1h-1z"/>
  <path fill="#E2E2E2" d="M51 52h1v1h-1zm1 0h1v1h-1zm1 0h1v1h-1z"/>
  <path fill="#7900A4" d="M54 52h1v1h-1z"/>
  <path fill="#E2E2E2" d="M55 52h1v1h-1z"/>
  <path fill="#7900A4" d="M56 52h1v1h-1zm1 0h1v1h-1zm1 0h1v1h-1zm1 0h1v1h-1zm1 0h1v1h-1zm1 0h1v1h-1zm1 0h1v1h-1zm1 0h1v1h-1z"/>
  <path fill="#00D54D" d="M0 53h1v1H0zm1 0h1v1H1zm1 0h1v1H2zm1 0h1v1H3zm1 0h1v1H4zm1 0h1v1H5zm1 0h1v1H6z"/>
  <path fill="#E2E2E2" d="M7 53h1v1H7z"/>
  <path fill="#00D54D" d="M8 53h1v1H8z"/>
  <path fill="#E2E2E2" d="M9 53h1v1H9zm1 0h1v1h-1zm1 0h1v1h-1z"/>
  <path fill="#7900A4" d="M12 53h1v1h-1zm1 0h1v1h-1zm1 0h1v1h-1z"/>
  <path fill="#E2E2E2" d="M15 53h1v1h-1zm1 0h1v1h-1z"/>
  <path fill="#7900A4" d="M17 53h1v1h-1zm1 0h1v1h-1zm1 0h1v1h-1zm1 0h1v1h-1zm1 0h1v1h-1zm1 0h1v1h-1z"/>
  <path fill="#E2E2E2" d="M23 53h1v1h-1zm1 0h1v1h-1z"/>
  <path fill="#7900A4" d="M25 53h1v1h-1zm1 0h1v1h-1zm1 0h1v1h-1zm1 0h1v1h-1zm1 0h1v1h-1zm1 0h1v1h-1z"/>
  <path fill="#E2E2E2" d="M31 53h1v1h-1zm1 0h1v1h-1z"/>
  <path fill="#7900A4" d="M33 53h1v1h-1zm1 0h1v1h-1zm1 0h1v1h-1zm1 0h1v1h-1zm1 0h1v1h-1zm1 0h1v1h-1z"/>
  <path fill="#E2E2E2" d="M39 53h1v1h-1zm1 0h1v1h-1z"/>
  <path fill="#7900A4" d="M41 53h1v1h-1zm1 0h1v1h-1zm1 0h1v1h-1zm1 0h1v1h-1zm1 0h1v1h-1zm1 0h1v1h-1z"/>
  <path fill="#E2E2E2" d="M47 53h1v1h-1zm1 0h1v1h-1z"/>
  <path fill="#7900A4" d="M49 53h1v1h-1zm1 0h1v1h-1zm1 0h1v1h-1z"/>
  <path fill="#E2E2E2" d="M52 53h1v1h-1zm1 0h1v1h-1zm1 0h1v1h-1z"/>
  <path fill="#7900A4" d="M55 53h1v1h-1z"/>
  <path fill="#E2E2E2" d="M56 53h1v1h-1z"/>
  <path fill="#7900A4" d="M57 53h1v1h-1zm1 0h1v1h-1zm1 0h1v1h-1zm1 0h1v1h-1zm1 0h1v1h-1zm1 0h1v1h-1zm1 0h1v1h-1z"/>
  <path fill="#00D54D" d="M0 54h1v1H0zm1 0h1v1H1zm1 0h1v1H2zm1 0h1v1H3zm1 0h1v1H4zm1 0h1v1H5zm1 0h1v1H6z"/>
  <path fill="#E2E2E2" d="M7 54h1v1H7zm1 0h1v1H8zm1 0h1v1H9zm1 0h1v1h-1z"/>
  <path fill="#7900A4" d="M11 54h1v1h-1zm1 0h1v1h-1z"/>
  <path fill="#E2E2E2" d="M13 54h1v1h-1zm1 0h1v1h-1z"/>
  <path fill="#7900A4" d="M15 54h1v1h-1zm1 0h1v1h-1zm1 0h1v1h-1zm1 0h1v1h-1zm1 0h1v1h-1zm1 0h1v1h-1zm1 0h1v1h-1zm1 0h1v1h-1zm1 0h1v1h-1zm1 0h1v1h-1z"/>
  <path fill="#E2E2E2" d="M25 54h1v1h-1zm1 0h1v1h-1z"/>
  <path fill="#7900A4" d="M27 54h1v1h-1zm1 0h1v1h-1zm1 0h1v1h-1zm1 0h1v1h-1z"/>
  <path fill="#E2E2E2" d="M31 54h1v1h-1zm1 0h1v1h-1z"/>
  <path fill="#7900A4" d="M33 54h1v1h-1zm1 0h1v1h-1zm1 0h1v1h-1zm1 0h1v1h-1z"/>
  <path fill="#E2E2E2" d="M37 54h1v1h-1zm1 0h1v1h-1z"/>
  <path fill="#7900A4" d="M39 54h1v1h-1zm1 0h1v1h-1zm1 0h1v1h-1zm1 0h1v1h-1zm1 0h1v1h-1zm1 0h1v1h-1zm1 0h1v1h-1zm1 0h1v1h-1zm1 0h1v1h-1zm1 0h1v1h-1z"/>
  <path fill="#E2E2E2" d="M49 54h1v1h-1zm1 0h1v1h-1z"/>
  <path fill="#7900A4" d="M51 54h1v1h-1zm1 0h1v1h-1z"/>
  <path fill="#E2E2E2" d="M53 54h1v1h-1zm1 0h1v1h-1zm1 0h1v1h-1zm1 0h1v1h-1z"/>
  <path fill="#7900A4" d="M57 54h1v1h-1zm1 0h1v1h-1zm1 0h1v1h-1zm1 0h1v1h-1zm1 0h1v1h-1zm1 0h1v1h-1zm1 0h1v1h-1z"/>
  <path fill="#00D54D" d="M0 55h1v1H0zm1 0h1v1H1zm1 0h1v1H2zm1 0h1v1H3zm1 0h1v1H4zm1 0h1v1H5z"/>
  <path fill="#E2E2E2" d="M6 55h1v1H6zm1 0h1v1H7zm1 0h1v1H8zm1 0h1v1H9z"/>
  <path fill="#7900A4" d="M10 55h1v1h-1z"/>
  <path fill="#E2E2E2" d="M11 55h1v1h-1zm1 0h1v1h-1z"/>
  <path fill="#7900A4" d="M13 55h1v1h-1zm1 0h1v1h-1zm1 0h1v1h-1zm1 0h1v1h-1zm1 0h1v1h-1zm1 0h1v1h-1zm1 0h1v1h-1zm1 0h1v1h-1zm1 0h1v1h-1zm1 0h1v1h-1zm1 0h1v1h-1zm1 0h1v1h-1zm1 0h1v1h-1zm1 0h1v1h-1z"/>
  <path fill="#E2E2E2" d="M27 55h1v1h-1zm1 0h1v1h-1z"/>
  <path fill="#7900A4" d="M29 55h1v1h-1zm1 0h1v1h-1z"/>
  <path fill="#E2E2E2" d="M31 55h1v1h-1zm1 0h1v1h-1z"/>
  <path fill="#7900A4" d="M33 55h1v1h-1zm1 0h1v1h-1z"/>
  <path fill="#E2E2E2" d="M35 55h1v1h-1zm1 0h1v1h-1z"/>
  <path fill="#7900A4" d="M37 55h1v1h-1zm1 0h1v1h-1zm1 0h1v1h-1zm1 0h1v1h-1zm1 0h1v1h-1zm1 0h1v1h-1zm1 0h1v1h-1zm1 0h1v1h-1zm1 0h1v1h-1zm1 0h1v1h-1zm1 0h1v1h-1zm1 0h1v1h-1zm1 0h1v1h-1zm1 0h1v1h-1z"/>
  <path fill="#E2E2E2" d="M51 55h1v1h-1zm1 0h1v1h-1z"/>
  <path fill="#7900A4" d="M53 55h1v1h-1z"/>
  <path fill="#E2E2E2" d="M54 55h1v1h-1zm1 0h1v1h-1zm1 0h1v1h-1zm1 0h1v1h-1z"/>
  <path fill="#7900A4" d="M58 55h1v1h-1zm1 0h1v1h-1zm1 0h1v1h-1zm1 0h1v1h-1zm1 0h1v1h-1zm1 0h1v1h-1z"/>
  <path fill="#00D54D" d="M0 56h1v1H0zm1 0h1v1H1zm1 0h1v1H2zm1 0h1v1H3zm1 0h1v1H4zm1 0h1v1H5z"/>
  <path fill="#E2E2E2" d="M6 56h1v1H6zm1 0h1v1H7zm1 0h1v1H8zm1 0h1v1H9zm1 0h1v1h-1z"/>
  <path fill="#7900A4" d="M11 56h1v1h-1zm1 0h1v1h-1zm1 0h1v1h-1zm1 0h1v1h-1zm1 0h1v1h-1zm1 0h1v1h-1zm1 0h1v1h-1zm1 0h1v1h-1zm1 0h1v1h-1zm1 0h1v1h-1zm1 0h1v1h-1zm1 0h1v1h-1zm1 0h1v1h-1zm1 0h1v1h-1zm1 0h1v1h-1zm1 0h1v1h-1zm1 0h1v1h-1zm1 0h1v1h-1z"/>
  <path fill="#E2E2E2" d="M29 56h1v1h-1z"/>
  <path fill="#7900A4" d="M30 56h1v1h-1z"/>
  <path fill="#E2E2E2" d="M31 56h1v1h-1zm1 0h1v1h-1z"/>
  <path fill="#7900A4" d="M33 56h1v1h-1z"/>
  <path fill="#E2E2E2" d="M34 56h1v1h-1z"/>
  <path fill="#7900A4" d="M35 56h1v1h-1zm1 0h1v1h-1zm1 0h1v1h-1zm1 0h1v1h-1zm1 0h1v1h-1zm1 0h1v1h-1zm1 0h1v1h-1zm1 0h1v1h-1zm1 0h1v1h-1zm1 0h1v1h-1zm1 0h1v1h-1zm1 0h1v1h-1zm1 0h1v1h-1zm1 0h1v1h-1zm1 0h1v1h-1zm1 0h1v1h-1zm1 0h1v1h-1zm1 0h1v1h-1z"/>
  <path fill="#E2E2E2" d="M53 56h1v1h-1zm1 0h1v1h-1zm1 0h1v1h-1zm1 0h1v1h-1zm1 0h1v1h-1z"/>
  <path fill="#7900A4" d="M58 56h1v1h-1zm1 0h1v1h-1zm1 0h1v1h-1zm1 0h1v1h-1zm1 0h1v1h-1zm1 0h1v1h-1z"/>
  <path fill="#00D54D" d="M0 57h1v1H0zm1 0h1v1H1zm1 0h1v1H2zm1 0h1v1H3zm1 0h1v1H4zm1 0h1v1H5z"/>
  <path fill="#E2E2E2" d="M6 57h1v1H6zm1 0h1v1H7zm1 0h1v1H8z"/>
  <path fill="#7900A4" d="M9 57h1v1H9zm1 0h1v1h-1zm1 0h1v1h-1zm1 0h1v1h-1zm1 0h1v1h-1zm1 0h1v1h-1zm1 0h1v1h-1zm1 0h1v1h-1zm1 0h1v1h-1zm1 0h1v1h-1zm1 0h1v1h-1zm1 0h1v1h-1zm1 0h1v1h-1zm1 0h1v1h-1zm1 0h1v1h-1zm1 0h1v1h-1zm1 0h1v1h-1zm1 0h1v1h-1zm1 0h1v1h-1zm1 0h1v1h-1zm1 0h1v1h-1z"/>
  <path fill="#E2E2E2" d="M30 57h1v1h-1zm1 0h1v1h-1zm1 0h1v1h-1zm1 0h1v1h-1z"/>
  <path fill="#7900A4" d="M34 57h1v1h-1zm1 0h1v1h-1zm1 0h1v1h-1zm1 0h1v1h-1zm1 0h1v1h-1zm1 0h1v1h-1zm1 0h1v1h-1zm1 0h1v1h-1zm1 0h1v1h-1zm1 0h1v1h-1zm1 0h1v1h-1zm1 0h1v1h-1zm1 0h1v1h-1zm1 0h1v1h-1zm1 0h1v1h-1zm1 0h1v1h-1zm1 0h1v1h-1zm1 0h1v1h-1zm1 0h1v1h-1zm1 0h1v1h-1zm1 0h1v1h-1z"/>
  <path fill="#E2E2E2" d="M55 57h1v1h-1zm1 0h1v1h-1zm1 0h1v1h-1z"/>
  <path fill="#7900A4" d="M58 57h1v1h-1zm1 0h1v1h-1zm1 0h1v1h-1zm1 0h1v1h-1zm1 0h1v1h-1zm1 0h1v1h-1z"/>
  <path fill="#00D54D" d="M0 58h1v1H0zm1 0h1v1H1zm1 0h1v1H2zm1 0h1v1H3zm1 0h1v1H4zm1 0h1v1H5z"/>
  <path fill="#7900A4" d="M6 58h1v1H6zm1 0h1v1H7zm1 0h1v1H8zm1 0h1v1H9zm1 0h1v1h-1zm1 0h1v1h-1zm1 0h1v1h-1zm1 0h1v1h-1zm1 0h1v1h-1zm1 0h1v1h-1zm1 0h1v1h-1zm1 0h1v1h-1zm1 0h1v1h-1zm1 0h1v1h-1zm1 0h1v1h-1zm1 0h1v1h-1zm1 0h1v1h-1zm1 0h1v1h-1zm1 0h1v1h-1zm1 0h1v1h-1zm1 0h1v1h-1zm1 0h1v1h-1zm1 0h1v1h-1zm1 0h1v1h-1zm1 0h1v1h-1zm1 0h1v1h-1zm1 0h1v1h-1zm1 0h1v1h-1zm1 0h1v1h-1zm1 0h1v1h-1zm1 0h1v1h-1zm1 0h1v1h-1zm1 0h1v1h-1zm1 0h1v1h-1zm1 0h1v1h-1zm1 0h1v1h-1zm1 0h1v1h-1zm1 0h1v1h-1zm1 0h1v1h-1zm1 0h1v1h-1zm1 0h1v1h-1zm1 0h1v1h-1zm1 0h1v1h-1zm1 0h1v1h-1zm1 0h1v1h-1zm1 0h1v1h-1zm1 0h1v1h-1zm1 0h1v1h-1zm1 0h1v1h-1zm1 0h1v1h-1zm1 0h1v1h-1zm1 0h1v1h-1zm1 0h1v1h-1zm1 0h1v1h-1zm1 0h1v1h-1zm1 0h1v1h-1zm1 0h1v1h-1zm1 0h1v1h-1z"/>
  <path fill="#00D54D" d="M1 59h1v1H1zm1 0h1v1H2zm1 0h1v1H3zm1 0h1v1H4z"/>
  <path fill="#7900A4" d="M5 59h1v1H5zm1 0h1v1H6zm1 0h1v1H7zm1 0h1v1H8zm1 0h1v1H9zm1 0h1v1h-1zm1 0h1v1h-1zm1 0h1v1h-1zm1 0h1v1h-1zm1 0h1v1h-1zm1 0h1v1h-1zm1 0h1v1h-1zm1 0h1v1h-1zm1 0h1v1h-1zm1 0h1v1h-1zm1 0h1v1h-1zm1 0h1v1h-1zm1 0h1v1h-1zm1 0h1v1h-1zm1 0h1v1h-1zm1 0h1v1h-1zm1 0h1v1h-1zm1 0h1v1h-1zm1 0h1v1h-1zm1 0h1v1h-1zm1 0h1v1h-1zm1 0h1v1h-1zm1 0h1v1h-1zm1 0h1v1h-1zm1 0h1v1h-1zm1 0h1v1h-1zm1 0h1v1h-1zm1 0h1v1h-1zm1 0h1v1h-1zm1 0h1v1h-1zm1 0h1v1h-1zm1 0h1v1h-1zm1 0h1v1h-1zm1 0h1v1h-1zm1 0h1v1h-1zm1 0h1v1h-1zm1 0h1v1h-1zm1 0h1v1h-1zm1 0h1v1h-1zm1 0h1v1h-1zm1 0h1v1h-1zm1 0h1v1h-1zm1 0h1v1h-1zm1 0h1v1h-1zm1 0h1v1h-1zm1 0h1v1h-1zm1 0h1v1h-1zm1 0h1v1h-1zm1 0h1v1h-1zm1 0h1v1h-1zm1 0h1v1h-1zm1 0h1v1h-1zm1 0h1v1h-1z"/>
  <path fill="#00D54D" d="M1 60h1v1H1zm1 0h1v1H2zm1 0h1v1H3z"/>
  <path fill="#7900A4" d="M4 60h1v1H4zm1 0h1v1H5zm1 0h1v1H6zm1 0h1v1H7zm1 0h1v1H8zm1 0h1v1H9zm1 0h1v1h-1zm1 0h1v1h-1zm1 0h1v1h-1zm1 0h1v1h-1zm1 0h1v1h-1zm1 0h1v1h-1zm1 0h1v1h-1zm1 0h1v1h-1zm1 0h1v1h-1zm1 0h1v1h-1zm1 0h1v1h-1zm1 0h1v1h-1zm1 0h1v1h-1zm1 0h1v1h-1zm1 0h1v1h-1zm1 0h1v1h-1zm1 0h1v1h-1zm1 0h1v1h-1zm1 0h1v1h-1zm1 0h1v1h-1zm1 0h1v1h-1zm1 0h1v1h-1zm1 0h1v1h-1zm1 0h1v1h-1zm1 0h1v1h-1zm1 0h1v1h-1zm1 0h1v1h-1zm1 0h1v1h-1zm1 0h1v1h-1zm1 0h1v1h-1zm1 0h1v1h-1zm1 0h1v1h-1zm1 0h1v1h-1zm1 0h1v1h-1zm1 0h1v1h-1zm1 0h1v1h-1zm1 0h1v1h-1zm1 0h1v1h-1zm1 0h1v1h-1zm1 0h1v1h-1zm1 0h1v1h-1zm1 0h1v1h-1zm1 0h1v1h-1zm1 0h1v1h-1zm1 0h1v1h-1zm1 0h1v1h-1zm1 0h1v1h-1zm1 0h1v1h-1zm1 0h1v1h-1zm1 0h1v1h-1zm1 0h1v1h-1zm1 0h1v1h-1zm1 0h1v1h-1z"/>
  <path fill="#00D54D" d="M2 61h1v1H2z"/>
  <path fill="#7900A4" d="M3 61h1v1H3zm1 0h1v1H4zm1 0h1v1H5zm1 0h1v1H6zm1 0h1v1H7zm1 0h1v1H8zm1 0h1v1H9zm1 0h1v1h-1zm1 0h1v1h-1zm1 0h1v1h-1zm1 0h1v1h-1zm1 0h1v1h-1zm1 0h1v1h-1zm1 0h1v1h-1zm1 0h1v1h-1zm1 0h1v1h-1zm1 0h1v1h-1zm1 0h1v1h-1zm1 0h1v1h-1zm1 0h1v1h-1zm1 0h1v1h-1zm1 0h1v1h-1zm1 0h1v1h-1zm1 0h1v1h-1zm1 0h1v1h-1zm1 0h1v1h-1zm1 0h1v1h-1zm1 0h1v1h-1zm1 0h1v1h-1zm1 0h1v1h-1zm1 0h1v1h-1zm1 0h1v1h-1zm1 0h1v1h-1zm1 0h1v1h-1zm1 0h1v1h-1zm1 0h1v1h-1zm1 0h1v1h-1zm1 0h1v1h-1zm1 0h1v1h-1zm1 0h1v1h-1zm1 0h1v1h-1zm1 0h1v1h-1zm1 0h1v1h-1zm1 0h1v1h-1zm1 0h1v1h-1zm1 0h1v1h-1zm1 0h1v1h-1zm1 0h1v1h-1zm1 0h1v1h-1zm1 0h1v1h-1zm1 0h1v1h-1zm1 0h1v1h-1zm1 0h1v1h-1zm1 0h1v1h-1zm1 0h1v1h-1zm1 0h1v1h-1zm1 0h1v1h-1zm1 0h1v1h-1zm1 0h1v1h-1zM3 62h1v1H3zm1 0h1v1H4zm1 0h1v1H5zm1 0h1v1H6zm1 0h1v1H7zm1 0h1v1H8zm1 0h1v1H9zm1 0h1v1h-1zm1 0h1v1h-1zm1 0h1v1h-1zm1 0h1v1h-1zm1 0h1v1h-1zm1 0h1v1h-1zm1 0h1v1h-1zm1 0h1v1h-1zm1 0h1v1h-1zm1 0h1v1h-1zm1 0h1v1h-1zm1 0h1v1h-1zm1 0h1v1h-1zm1 0h1v1h-1zm1 0h1v1h-1zm1 0h1v1h-1zm1 0h1v1h-1zm1 0h1v1h-1zm1 0h1v1h-1zm1 0h1v1h-1zm1 0h1v1h-1zm1 0h1v1h-1zm1 0h1v1h-1zm1 0h1v1h-1zm1 0h1v1h-1zm1 0h1v1h-1zm1 0h1v1h-1zm1 0h1v1h-1zm1 0h1v1h-1zm1 0h1v1h-1zm1 0h1v1h-1zm1 0h1v1h-1zm1 0h1v1h-1zm1 0h1v1h-1zm1 0h1v1h-1zm1 0h1v1h-1zm1 0h1v1h-1zm1 0h1v1h-1zm1 0h1v1h-1zm1 0h1v1h-1zm1 0h1v1h-1zm1 0h1v1h-1zm1 0h1v1h-1zm1 0h1v1h-1zm1 0h1v1h-1zm1 0h1v1h-1zm1 0h1v1h-1zm1 0h1v1h-1zm1 0h1v1h-1zm1 0h1v1h-1zm1 0h1v1h-1zM5 63h1v1H5zm1 0h1v1H6zm1 0h1v1H7zm1 0h1v1H8zm1 0h1v1H9zm1 0h1v1h-1zm1 0h1v1h-1zm1 0h1v1h-1zm1 0h1v1h-1zm1 0h1v1h-1zm1 0h1v1h-1zm1 0h1v1h-1zm1 0h1v1h-1zm1 0h1v1h-1zm1 0h1v1h-1zm1 0h1v1h-1zm1 0h1v1h-1zm1 0h1v1h-1zm1 0h1v1h-1zm1 0h1v1h-1zm1 0h1v1h-1zm1 0h1v1h-1zm1 0h1v1h-1zm1 0h1v1h-1zm1 0h1v1h-1zm1 0h1v1h-1zm1 0h1v1h-1zm1 0h1v1h-1zm1 0h1v1h-1zm1 0h1v1h-1zm1 0h1v1h-1zm1 0h1v1h-1zm1 0h1v1h-1zm1 0h1v1h-1zm1 0h1v1h-1zm1 0h1v1h-1zm1 0h1v1h-1zm1 0h1v1h-1zm1 0h1v1h-1zm1 0h1v1h-1zm1 0h1v1h-1zm1 0h1v1h-1zm1 0h1v1h-1zm1 0h1v1h-1zm1 0h1v1h-1zm1 0h1v1h-1zm1 0h1v1h-1zm1 0h1v1h-1zm1 0h1v1h-1zm1 0h1v1h-1zm1 0h1v1h-1zm1 0h1v1h-1zm1 0h1v1h-1zm1 0h1v1h-1z"/>
</svg>
